<?xml version="1.0" encoding="UTF-8"?>
<svg id="Capa_1" data-name="Capa 1" xmlns="http://www.w3.org/2000/svg" viewBox="0 0 494 416.61">
  <defs>
    <style>
      .cls-1 {
        fill: #be1a1a;
      }

      .cls-1, .cls-2, .cls-3 {
        stroke-width: 0px;
      }

      .cls-2 {
        fill: #fdfcfc;
      }

      .cls-3 {
        fill: #bd1818;
      }
    </style>
  </defs>
  <path class="cls-2" d="m339.49,77.98c.22-.33.06-.44-.27-.46-.37-.33-.78-.28-1.21-.13-9.32,0-18.64,0-27.96,0-.6-.13-1.24-.35-1.25.65,0,9.72,0,19.44,0,29.15-.07.51.11.79.67.72,9.46.06,18.92.11,28.38.19,1.17,0,1.83-.23,1.8-1.63-.12-5.91-.15-11.82-.21-17.73.34-3.59.23-7.18.04-10.77Zm-.04,193.98c.12-.57.53-1.18-.24-1.63l-.6-.13c-9.72,0-19.44,0-29.15,0-.53-.08-.73.16-.65.67,0,9.12,0,18.24,0,27.36-.74,2.96.91,3.09,3.08,2.6,3.75.27,7.5.3,11.25.01.59.24,1.19.24,1.78,0,1.59.3,3.18.3,4.76,0,1.19.27,2.38.31,3.57-.05,1.06.08,2.13.09,3.18.25,2.82.43,3.75-.75,2.99-3.42.37-8.56.29-17.12.03-25.68Zm-146.42-32.55c0,.5,0,1-.01,1.51,0,1.05,0,2.11,0,3.16,0,.8-.02,1.59-.03,2.39-.04,4.73-.04,9.47-.15,14.2-.03,1.47.55,1.83,1.91,1.81,9.47-.08,18.94-.1,28.41-.14.38.14.54,0,.48-.39.05-9.57.09-19.15.18-28.72.01-1.23-.3-1.76-1.65-1.73-4.83.11-9.67.11-14.51.15-2.98,0-5.95,0-8.93,0-1.19,0-2.37,0-3.56,0-2.03-.5-2.71.3-2.18,2.26,0,1.83.01,3.67.02,5.5Zm-7.95-93.53c.06-9.51.1-19.03.2-28.54.01-1.36-.56-1.65-1.78-1.65-9.12.03-18.25.04-27.37,0-1.43,0-1.87.47-1.87,1.89.05,9.12.04,18.25,0,27.37,0,1.25.32,1.78,1.65,1.76,7.53-.1,15.06-.15,22.59-.21.2,0,.39,0,.59,0,1.19,0,2.38,0,3.57,0,.85-.02,1.92.82,2.4-.62Zm-77.08-24.4c.06-1.19.06-2.38.19-3.55.18-1.63-.35-2.27-2.12-2.26-9.02.08-18.05.07-27.07.02-1.46,0-1.84.48-1.83,1.88.05,9.12.04,18.24,0,27.37,0,1.17.15,1.79,1.58,1.78,9.22-.06,18.44-.04,27.66-.01,1.21,0,1.79-.29,1.76-1.65-.11-6.04-.15-12.08-.21-18.13.27-1.81.32-3.62.02-5.44Zm115.68,194.62c.18-1.97.19-3.91-.03-5.9-.14-1.23-.52-1.52-1.65-1.52-9.12.03-18.24.03-27.37,0-1.22,0-1.78.32-1.78,1.66.05,9.12.05,18.24.02,27.37,0,1.21.31,1.81,1.64,1.81,9.22-.03,18.44-.04,27.66,0,1.32,0,1.68-.46,1.66-1.73-.09-6.44-.11-12.88-.15-19.32,0-.79,0-1.59,0-2.38Zm7.95,86.89c0,.59,0,1.19,0,1.78,0,2.58.01,5.16.02,7.74,0,1.19-.01,2.39-.02,3.58-.1.39.06.53.44.47,9.93,0,19.85,0,29.78.01.41.08.57-.08.49-.49,0-9.93-.02-19.85-.03-29.78.09-.4-.05-.56-.46-.44-1,0-1.99.01-2.99.02-3.18,0-6.35,0-9.53,0-5.75,0-11.5,0-17.25,0-.74.07-.52.57-.45,1,0,3.78.02,7.55.02,11.33-.01,1.59-.02,3.18-.03,4.77Zm208.76-209.92c-4.96-.01-9.93-.02-14.89-.04-.43-.06-.94-.29-1,.46,0,4.59,0,9.18,0,13.77,0,1.16,0,2.32,0,3.48,0,.79,0,1.58,0,2.37,0,2.18,0,4.37.01,6.55,0,1.19,0,2.39,0,3.58-.1.37.03.51.41.41,9.93,0,19.86.01,29.79.02.41.13.55-.04.47-.44,0-9.93,0-19.85,0-29.78.07-.39-.09-.54-.47-.44-1.19,0-2.39,0-3.58.01-3.57,0-7.15.01-10.72.02Zm-285.95-8.45c-.23.34-.03.4.26.4,9.7.07,19.41.12,29.11.22,1.27.01,1.46-.57,1.45-1.62-.08-9.6-.14-19.21-.2-28.81-.17-.74-.68-.5-1.15-.41-9.54,0-19.09,0-28.63,0-.38-.09-.8-.24-.74.42-.46,9.93-.27,19.86-.1,29.8Zm107.42,39.08c.4.12.55-.03.46-.43,0-9.93,0-19.85,0-29.78.09-.41-.06-.56-.47-.44-5.01,0-10.01,0-15.02,0-1.96-.04-3.93-.2-5.88-.1-3.1.16-7.45-1.42-8.95.64-1.54,2.11-.37,6.21-.38,9.44,0,.79.01,1.58.02,2.38,0,1.01,0,2.03,0,3.04,0,4.75,0,9.49-.01,14.24-.06.43-.29.94.45,1.01,9.92,0,19.85,0,29.77.01ZM38.82,69.13c-.04.32.07.46.4.31,9.7,0,19.4.01,29.1.02.84.25,1.36.1,1.15-.94,0-1.19-.02-2.38-.02-3.57v-9.53c0-5.16,0-10.33,0-15.49.09-.47.36-1.01-.44-1.13-9.59-.05-19.18-.1-28.77-.17-1.05,0-1.65.18-1.63,1.44.1,9.69.15,19.37.21,29.06Zm184.35,123.92c-9.5-.04-18.99-.05-28.49-.14-1.46-.01-1.84.51-1.83,1.89.09,9.49.12,18.99.16,28.48-.11.35.02.47.36.4,3.38,0,6.75,0,10.13,0,.4,0,.8,0,1.2,0,.59,0,1.19,0,1.78,0,2.18,0,4.37,0,6.55,0l8.95.03c.6-.03,1.36.57,1.69-.46,0-9.92,0-19.84,0-29.76.06-.41-.12-.54-.5-.45ZM24.35,107.88c1.68.06,3.35.07,5.02.2,1.36.1,1.63-.53,1.62-1.75-.04-9.1-.04-18.21,0-27.31,0-1.17-.17-1.8-1.58-1.79-9.2.05-18.4.04-27.61,0-1.19,0-1.79.26-1.78,1.63.05,9.2.04,18.4,0,27.61,0,1.13.36,1.61,1.52,1.6,6.42-.08,12.85-.13,19.27-.18,1.18,0,2.35,0,3.53-.01ZM399.33,30.85c4.1,0,8.21.01,12.31.02,1.32.13,2.64.34,3.93-.15.46.34.85.47.99-.29.05-9.6.08-19.2.18-28.8.01-1.41-.64-1.59-1.81-1.59-9.11.03-18.22.05-27.34,0-1.45,0-1.87.49-1.85,1.88.1,9.5.13,19,.19,28.5,0,.69.46.54.87.47,2.58-.02,5.17-.03,7.75-.05.4,0,.8,0,1.2,0,1.19,0,2.38,0,3.57,0Zm11.85,85.05c-8.1-.27-16.2-.28-24.31,0-.64-.06-1.02.17-.95.88,0,8.7,0,17.41,0,26.11-.12.18-.12.35,0,.53-.78,2.78.37,3.72,3.06,3.24.66-.12,1.34-.09,2.02-.13.2,0,.41,0,.61,0,8.13,0,16.26,0,24.39,0,.96-.06.71-.69.6-1.26.04-8.71.09-17.42.1-26.12,0-3.61-.03-3.61-3.73-3.23-.6-.01-1.19-.02-1.79-.03Zm51.95,68.68c-.09.4.05.58.47.52,9.92,0,19.85,0,29.77,0,.42.07.55-.13.46-.51-.02-9.93-.03-19.86-.05-29.79.08-.35-.05-.48-.39-.37-9.94,0-19.87,0-29.81,0-.35-.13-.48,0-.41.36-.31,9.93-.21,19.86-.05,29.79Zm-316.52,93.43c.29-1.41.31-2.82-.01-4.23-.19-1.21,1.16-2.77-.81-3.58-9.72,0-19.44,0-29.16.01-.52-.08-.73.15-.66.66,0,9.71,0,19.43,0,29.14-.07.53.09.86.7.82.37,0,.74,0,1.11,0,1.2.29,2.41.3,3.61,0,7.9.06,15.79.11,23.69.2,1.27.02,1.75-.42,1.73-1.72-.1-6.51-.15-13.03-.21-19.54.25-.59.25-1.19,0-1.78Zm0-195.81c.06-1.17.11-2.33.17-3.5.06-1.16-.42-1.65-1.59-1.31-9.52,0-19.03,0-28.55,0-.52-.08-.73.16-.66.66-.24,9.32-.24,18.63,0,27.95-.03.72-.64,1.65.66,1.92,9.47.05,18.93.1,28.4.18,1.19,0,1.8-.28,1.78-1.65-.11-8.08-.15-16.17-.21-24.25Zm177.38,64.48c4.56,0,9.13-.06,13.69.03,1.57.03,2.02-.47,2-2.03-.07-8.93-.07-17.85,0-26.78.01-1.64-.39-2.25-2.14-2.24-8.93.08-17.85.08-26.78,0-1.77-.02-2.14.6-2.13,2.23.07,8.83.08,17.65,0,26.48-.02,1.76.33,2.43,2.26,2.36,4.36-.16,8.73-.05,13.09-.05Zm-154.08,123.38c-4.46,0-8.93.05-13.39-.03-1.58-.03-2.27.29-2.25,2.09.09,8.92.08,17.85,0,26.77-.01,1.7.52,2.18,2.2,2.17,8.92-.07,17.85-.07,26.77,0,1.52.01,2.07-.39,2.06-1.99-.07-9.02-.07-18.05,0-27.07.01-1.59-.48-2.01-2.02-1.97-4.46.1-8.92.03-13.39.04Zm192.98,0c-4.46,0-8.92.1-13.38-.05-1.91-.06-2.29.58-2.27,2.36.09,8.82.08,17.64,0,26.46-.01,1.63.37,2.26,2.13,2.24,8.92-.08,17.84-.08,26.76,0,1.76.02,2.16-.63,2.15-2.25-.06-8.92-.06-17.84,0-26.76.01-1.54-.44-2.07-2.02-2.03-4.46.09-8.92.03-13.38.03Zm-15.6-138.83c0,4.36.06,8.72-.03,13.08-.04,1.67.19,2.46,2.2,2.43,8.92-.12,17.83-.08,26.75-.02,1.51.01,2.09-.35,2.08-1.97-.07-9.02-.06-18.03,0-27.05,0-1.57-.54-2.03-2.07-2.02-8.92.06-17.83.06-26.75,0-1.65-.01-2.25.43-2.21,2.17.11,4.46.04,8.92.04,13.37Zm30.96,77.14h0c0-4.26-.09-8.52.04-12.77.06-1.95-.31-2.76-2.53-2.72-8.71.14-17.43.11-26.14.02-1.78-.02-2.39.38-2.37,2.27.1,8.81.11,17.63,0,26.44-.02,1.92.63,2.27,2.38,2.26,8.71-.08,17.43-.12,26.14.02,2.26.04,2.58-.8,2.53-2.74-.12-4.25-.04-8.52-.04-12.77Zm-30.97-193.09c0,4.46.07,8.92-.03,13.38-.04,1.73.33,2.41,2.26,2.38,8.82-.11,17.64-.1,26.46,0,1.87.02,2.33-.55,2.31-2.34-.08-8.82-.06-17.64,0-26.46.01-1.61-.35-2.24-2.13-2.22-8.92.09-17.84.08-26.76,0-1.71-.02-2.19.51-2.15,2.18.1,4.36.04,8.72.04,13.08Zm15.55,54.31c4.46,0,8.91-.05,13.37.03,1.54.03,2.08-.45,2.07-2.01-.05-9.01-.06-18.02,0-27.04.01-1.62-.58-1.98-2.08-1.97-8.91.06-17.83.07-26.74,0-1.64-.01-2.23.38-2.21,2.13.08,8.91.07,17.83,0,26.74-.01,1.71.56,2.19,2.22,2.16,4.45-.1,8.91-.03,13.37-.03Zm15.42,177.47c0-4.46-.02-8.92.01-13.37,0-1.31-.01-2.22-1.83-2.2-9.11.09-18.23.07-27.34,0-1.47,0-1.84.5-1.84,1.88.05,9.02.05,18.03,0,27.05,0,1.48.34,2.09,1.97,2.08,9.01-.07,18.03-.07,27.05,0,1.61.01,2.02-.56,2-2.06-.07-4.46-.03-8.92-.02-13.37Zm-15.81-61.83c4.56,0,9.11-.07,13.67.04,1.7.04,2.19-.5,2.17-2.17-.08-8.81-.1-17.63,0-26.44.02-2.05-.77-2.42-2.6-2.4-8.71.08-17.43.09-26.14-.02-1.91-.02-2.3.63-2.29,2.37.08,8.81.1,17.63,0,26.44-.03,1.99.74,2.25,2.43,2.21,4.26-.11,8.52-.03,12.77-.04ZM92.53.05c-4.36,0-8.73.1-13.08-.05-1.91-.07-2.29.59-2.27,2.36.08,8.82.07,17.64,0,26.46-.01,1.63.37,2.22,2.12,2.21,8.92-.08,17.84-.08,26.76,0,1.74.02,2.16-.56,2.15-2.2-.07-8.82-.08-17.64,0-26.46.02-1.79-.41-2.42-2.3-2.36-4.46.14-8.92.04-13.38.04Zm38.45,30.94c4.56,0,9.12-.07,13.67.04,1.71.04,2.18-.51,2.17-2.18-.07-8.82-.08-17.64,0-26.46.02-1.76-.39-2.4-2.29-2.38-8.82.1-17.64.1-26.46,0-1.88-.02-2.31.57-2.29,2.35.09,8.82.11,17.64,0,26.46-.02,1.96.7,2.27,2.41,2.22,4.26-.11,8.52-.04,12.78-.04ZM169.9.05c-4.46,0-8.92.06-13.38-.03-1.59-.03-2.28.3-2.26,2.09.08,8.92.07,17.84,0,26.75-.01,1.7.52,2.18,2.2,2.16,8.92-.08,17.84-.06,26.75,0,1.48,0,2.09-.31,2.07-1.95-.07-9.02-.07-18.03,0-27.05.01-1.56-.46-2.04-2.02-2-4.46.09-8.92.03-13.38.03Zm138.78,15.3s.02,0,.03,0c0,4.56.06,9.12-.03,13.67-.03,1.56.45,2.01,2,2,9.02-.07,18.03-.06,27.05-.01,1.37,0,1.94-.33,1.93-1.81-.05-9.12-.06-18.23,0-27.35,0-1.46-.51-1.84-1.9-1.83-9.02.05-18.03.08-27.05-.01-1.82-.02-2.09.7-2.06,2.26.09,4.36.03,8.72.03,13.08Zm-177.77,169.88c4.56,0,9.11-.06,13.67.03,1.61.03,2.27-.31,2.25-2.09-.08-8.91-.07-17.83,0-26.74.01-1.69-.5-2.19-2.19-2.18-8.91.08-17.83.07-26.74.01-1.5,0-2.1.37-2.09,1.98.06,9.01.07,18.03,0,27.04-.01,1.57.48,2.02,2.03,1.99,4.36-.1,8.72-.03,13.07-.04Zm154.74,84.85c-4.46,0-8.92.06-13.37-.03-1.65-.04-2.21.45-2.2,2.14.07,8.91.08,17.83,0,26.74-.02,1.76.6,2.14,2.22,2.13,8.91-.06,17.83-.06,26.74,0,1.54.01,2.06-.43,2.05-2.01-.06-9.01-.06-18.03,0-27.04.01-1.62-.59-2-2.07-1.97-4.46.07-8.91.03-13.37.03Zm-38.98,30.95c4.56,0,9.11-.06,13.67.03,1.69.04,2.18-.49,2.16-2.19-.09-8.82-.09-17.63-.01-26.45.02-1.76-.37-2.42-2.26-2.4-8.91.09-17.83.07-26.74,0-1.56-.01-2.01.47-2,2.02.07,8.91.09,17.83-.01,26.74-.02,1.95.7,2.3,2.41,2.26,4.26-.1,8.52-.03,12.78-.04Zm-22.85-15.59c0-4.36-.09-8.72.04-13.08.06-1.81-.41-2.36-2.28-2.34-8.82.1-17.64.1-26.46,0-1.87-.02-2.31.6-2.29,2.37.08,8.72.1,17.44,0,26.16-.02,1.93.47,2.54,2.46,2.52,8.72-.1,17.44-.11,26.16,0,2.06.03,2.47-.69,2.41-2.56-.13-4.36-.04-8.72-.04-13.08Zm177.03-61.63v-.02c4.65,0,9.31-.04,13.96.02,1.34.02,1.93-.27,1.92-1.78-.05-9.11-.04-18.21.02-27.32,0-1.45-.49-1.83-1.88-1.82-9.11.05-18.21.06-27.32,0-1.51,0-1.81.6-1.8,1.93.04,9.01.05,18.02-.01,27.02-.01,1.58.52,2.03,2.05,2,4.35-.09,8.71-.03,13.07-.03ZM77.2,53.64s0,0,0,0c0,4.56.09,9.12-.04,13.67-.05,1.87.55,2.33,2.36,2.31,8.82-.09,17.64-.08,26.46,0,1.66.01,2.23-.43,2.22-2.16-.08-8.92-.08-17.84,0-26.76.02-1.79-.64-2.12-2.25-2.11-8.82.06-17.64.08-26.46-.01-1.78-.02-2.41.38-2.35,2.27.15,4.26.05,8.52.05,12.78Zm69.58.53c0-4.46-.02-8.91.01-13.37.01-1.31-.02-2.23-1.83-2.21-9.11.08-18.22.07-27.33,0-1.47,0-1.83.51-1.82,1.88.04,9.01.04,18.02,0,27.04,0,1.48.35,2.11,1.98,2.1,9.01-.07,18.02-.07,27.04,0,1.61.01,2.02-.57,2-2.08-.07-4.46-.03-8.91-.03-13.37Zm23.12-15.54c-4.56,0-9.12.03-13.67-.02-1.32-.02-1.97.26-1.96,1.78.06,9.12.05,18.23,0,27.35,0,1.41.45,1.88,1.88,1.88,9.02-.05,18.03-.05,27.05,0,1.5,0,2.09-.38,2.08-1.98-.06-9.02-.06-18.03.01-27.05.01-1.57-.47-2.02-2.02-1.99-4.46.1-8.92.03-13.38.04Zm53.91,15.37c0-4.36-.08-8.72.04-13.07.05-1.78-.38-2.37-2.27-2.34-8.81.11-17.63.1-26.45,0-1.89-.02-2.3.61-2.29,2.38.08,8.72.09,17.43-.02,26.15-.02,1.94.49,2.54,2.47,2.51,8.72-.1,17.43-.11,26.15,0,2.05.03,2.46-.69,2.41-2.56-.13-4.35-.04-8.72-.04-13.07Zm46.29-.07s.02,0,.02,0c0,4.56.06,9.12-.03,13.67-.03,1.57.46,2.03,2.01,2.02,8.92-.06,17.84-.07,26.76,0,1.64.01,2.24-.4,2.22-2.15-.08-8.92-.06-17.84,0-26.76,0-1.42-.18-2.12-1.91-2.11-9.02.08-18.04.08-27.05-.02-1.83-.02-2.07.72-2.04,2.26.08,4.36.03,8.72.03,13.08Zm54.2,15.66c4.26,0,8.52-.08,12.78.04,1.84.05,2.62-.31,2.59-2.39-.12-8.81-.09-17.63-.01-26.45.01-1.69-.47-2.2-2.17-2.19-8.91.08-17.83.06-26.75,0-1.43,0-2.12.22-2.11,1.9.07,9.01.08,18.03,0,27.04-.02,1.84.76,2.09,2.3,2.07,4.46-.07,8.91-.03,13.37-.03Zm76.92-30.96c-4.46,0-8.92.05-13.37-.03-1.46-.02-2.12.29-2.1,1.95.06,9.01.05,18.03-.02,27.05-.01,1.57.5,2.04,2.04,2.03,9.02-.06,18.03-.07,27.05,0,1.69.01,1.93-.7,1.92-2.13-.05-8.92-.07-17.83.01-26.75.02-1.69-.46-2.19-2.15-2.15-4.46.11-8.92.04-13.37.03Zm23.13,15.59c0,4.46.06,8.92-.03,13.38-.03,1.58.49,2.03,2.03,2.02,9.02-.06,18.04-.05,27.05,0,1.37,0,1.92-.35,1.91-1.82-.05-9.12-.06-18.23,0-27.35,0-1.46-.48-1.84-1.87-1.83-9.02.05-18.04.07-27.05-.02-1.8-.02-2.11.66-2.08,2.25.09,4.46.03,8.92.03,13.38ZM92.78,185.23c4.36,0,8.72-.08,13.08.04,1.8.05,2.38-.43,2.36-2.3-.1-8.82-.07-17.64-.01-26.45.01-1.58-.31-2.28-2.11-2.27-8.92.08-17.83.08-26.75,0-1.71-.02-2.17.52-2.16,2.19.07,8.92.08,17.83,0,26.75-.02,1.79.66,2.1,2.23,2.07,4.46-.09,8.92-.03,13.38-.03Zm-38.87-.01s0,0,0,.01c4.46,0,8.92-.08,13.38.04,1.8.05,2.36-.43,2.34-2.3-.1-8.82-.08-17.64-.02-26.46.01-1.58-.29-2.28-2.09-2.26-8.92.09-17.84.08-26.76,0-1.71-.01-2.18.51-2.16,2.19.07,8.92.08,17.84,0,26.76-.02,1.8.65,2.09,2.24,2.05,4.36-.1,8.72-.04,13.08-.04Zm-22.92-15.29c0-4.46-.09-8.92.04-13.38.06-1.87-.54-2.32-2.35-2.31-8.82.09-17.64.08-26.46,0-1.65-.01-2.23.4-2.22,2.14.08,8.92.08,17.84,0,26.76-.02,1.75.59,2.13,2.22,2.11,8.82-.07,17.64-.08,26.46,0,1.76.02,2.42-.34,2.35-2.26-.15-4.35-.05-8.72-.05-13.08Zm177.26-23.25h0c4.46-.01,8.92-.07,13.38.02,1.56.03,2.27-.22,2.25-2.05-.09-8.92-.08-17.83,0-26.75.01-1.66-.42-2.2-2.14-2.19-8.92.07-17.83.04-26.75-.02-1.45,0-2.14.26-2.12,1.94.08,9.02.1,18.03,0,27.05-.02,1.89.81,2.05,2.3,2.03,4.36-.06,8.72-.02,13.08-.02Zm100.44,61.39h.02c0,4.55.07,9.11-.04,13.66-.04,1.71.54,2.16,2.19,2.14,8.81-.08,17.62-.09,26.43-.01,1.75.02,2.42-.35,2.39-2.26-.1-8.81-.1-17.62,0-26.43.02-1.91-.64-2.29-2.39-2.27-8.71.08-17.42.12-26.13-.02-2.22-.03-2.58.77-2.52,2.72.14,4.15.04,8.31.04,12.47Zm-254.25-15.13s0,.01,0,.02c-4.56,0-9.11.07-13.67-.04-1.66-.04-2.21.38-2.19,2.11.09,8.91.1,17.83.01,26.74-.02,1.8.65,2.09,2.23,2.08,8.82-.06,17.63-.08,26.45,0,1.8.02,2.37-.42,2.35-2.29-.1-8.81-.11-17.63,0-26.45.02-1.97-.71-2.27-2.42-2.23-4.26.1-8.52.03-12.78.03Zm38.1,30.89s0-.01,0-.02c4.45,0,8.91-.05,13.36.03,1.52.02,2.34-.17,2.32-2.04-.09-9.01-.07-18.02-.02-27.02,0-1.41-.44-1.87-1.87-1.86-9.11.05-18.21.06-27.32,0-1.48-.01-1.82.53-1.81,1.89.05,9.01.08,18.02-.02,27.02-.02,1.86.77,2.06,2.29,2.03,4.35-.08,8.71-.03,13.07-.03Zm324.2,22.95c0-4.46-.04-8.92.03-13.38.02-1.35-.27-1.92-1.78-1.91-9.12.07-18.24.06-27.35.01-1.42,0-1.89.41-1.88,1.85.05,9.02.05,18.04,0,27.06,0,1.47.31,2.11,1.97,2.09,9.02-.07,18.04-.07,27.06,0,1.61.01,2.01-.55,1.99-2.05-.08-4.56-.03-9.12-.03-13.68Zm-285.53-53.84c-4.45,0-8.91.06-13.36-.03-1.53-.03-2.05.4-2.03,1.98.07,9.01.09,18.02.02,27.02-.01,1.63.58,1.96,2.07,1.95,8.91-.06,17.82-.07,26.73,0,1.67.01,2.22-.44,2.21-2.14-.07-8.91-.08-17.82,0-26.73.02-1.81-.7-2.11-2.27-2.08-4.45.08-8.91.03-13.36.03Zm76.79-7.7c4.56,0,9.12-.06,13.68.03,1.63.03,2.21-.37,2.2-2.11-.08-8.92-.08-17.84,0-26.76.02-1.73-.55-2.16-2.2-2.14-8.82.07-17.64.08-26.46,0-1.79-.02-2.39.41-2.37,2.3.1,8.82.1,17.64,0,26.46-.02,1.92.62,2.31,2.37,2.26,4.26-.12,8.52-.04,12.78-.04Zm77.41,38.59c4.56,0,9.11-.06,13.67.03,1.54.03,2.04-.4,2.03-1.99-.07-9.01-.08-18.03,0-27.04.01-1.67-.67-1.93-2.11-1.92-8.91.05-17.83.07-26.74-.01-1.68-.01-2.18.45-2.17,2.15.08,8.91.09,17.83,0,26.74-.02,1.82.69,2.1,2.25,2.06,4.36-.09,8.72-.03,13.07-.02Zm54.24,23.12c0-4.36-.07-8.72.04-13.07.04-1.74-.31-2.42-2.25-2.4-8.81.11-17.63.09-26.45,0-1.82-.02-2.35.51-2.33,2.33.09,8.81.07,17.63.01,26.44-.01,1.58.29,2.27,2.09,2.25,8.91-.09,17.83-.09,26.74,0,1.71.02,2.21-.51,2.18-2.18-.1-4.46-.03-8.91-.03-13.37Zm-115.81,115.87c0-4.56-.06-9.12.03-13.67.03-1.57-.48-2.02-2.03-2.01-8.92.06-17.83.05-26.75-.01-1.62-.01-2.24.44-2.23,2.17.08,8.92.08,17.83-.01,26.75-.02,1.78.62,2.12,2.23,2.1,8.82-.07,17.63-.08,26.45,0,1.77.02,2.41-.36,2.34-2.27-.15-4.35-.05-8.72-.05-13.08Zm38.64-.26c0-4.36-.08-8.72.04-13.08.05-1.8-.43-2.38-2.31-2.35-8.82.1-17.64.08-26.46.02-1.59-.01-2.27.31-2.26,2.1.09,8.92.09,17.84,0,26.76-.01,1.69.47,2.18,2.16,2.16,8.92-.08,17.84-.09,26.76,0,1.77.02,2.13-.61,2.09-2.22-.1-4.46-.03-8.92-.03-13.38Zm38.59-115.49h-.02c0-4.46-.07-8.92.04-13.38.04-1.62-.3-2.24-2.08-2.22-8.92.09-17.84.09-26.76.02-1.69-.01-2.17.5-2.15,2.16.08,8.92.08,17.84.04,26.76,0,1.43.23,2.13,1.91,2.11,9.02-.08,18.04-.08,27.06-.02,1.6.01,2.03-.53,2-2.05-.08-4.46-.03-8.92-.03-13.38Zm0,115.76c0-4.56-.06-9.12.03-13.68.03-1.59-.52-2.03-2.05-2.02-9.02.06-18.04.06-27.05.02-1.38,0-1.91.36-1.91,1.83.05,9.12.05,18.23,0,27.35,0,1.44.47,1.83,1.87,1.82,9.02-.05,18.04-.08,27.05.01,1.81.02,2.11-.68,2.08-2.26-.09-4.36-.03-8.72-.03-13.08Zm-115.81-154.41c0-4.46-.07-8.91.04-13.36.04-1.71-.53-2.16-2.18-2.14-8.91.07-17.82.06-26.73,0-1.46,0-2.13.27-2.12,1.93.07,9.01.07,18.02,0,27.03-.01,1.59.53,2,2.06,1.99,8.91-.06,17.82-.09,26.73.02,1.95.02,2.28-.68,2.24-2.39-.11-4.35-.04-8.71-.04-13.07Zm254.47-23.17c4.46,0,8.92-.06,13.38.03,1.57.03,2.26-.26,2.24-2.07-.09-8.92-.08-17.84,0-26.76.01-1.68-.46-2.2-2.16-2.18-8.92.08-17.84.06-26.76.01-1.47,0-2.11.3-2.09,1.95.07,9.02.08,18.04,0,27.06-.01,1.59.48,2.02,2.02,1.99,4.46-.09,8.92-.03,13.38-.03Zm-208.2,61.53c0,4.46.08,8.92-.04,13.38-.05,1.79.4,2.39,2.29,2.37,8.82-.1,17.64-.1,26.46,0,1.92.02,2.28-.63,2.26-2.38-.08-8.82-.08-17.64,0-26.46.01-1.66-.39-2.2-2.12-2.19-8.92.08-17.84.09-26.76,0-1.74-.02-2.17.54-2.12,2.19.11,4.36.04,8.72.04,13.08Zm169.63-61.53c4.46,0,8.92-.06,13.38.03,1.56.03,2.26-.25,2.24-2.06-.09-8.92-.08-17.84,0-26.75.01-1.66-.44-2.21-2.16-2.2-8.92.08-17.84.06-26.75,0-1.47,0-2.13.33-2.12,1.96.06,9.02.07,18.03,0,27.05-.01,1.58.5,2.03,2.04,2,4.46-.09,8.92-.03,13.38-.03ZM30.98,131.3c0-4.56-.04-9.12.02-13.67.02-1.36-.31-1.95-1.8-1.94-9.12.05-18.23.04-27.35,0-1.45,0-1.85.51-1.84,1.91.05,9.02.06,18.04,0,27.05,0,1.51.38,2.07,1.98,2.06,9.02-.07,18.04-.07,27.05,0,1.6.01,2-.51,1.97-2.03-.09-4.46-.03-8.92-.03-13.38Zm7.65-.29c0,4.46.09,8.92-.04,13.37-.05,1.81.43,2.35,2.29,2.33,8.82-.1,17.64-.1,26.45,0,1.88.02,2.3-.57,2.29-2.36-.09-8.72-.1-17.44,0-26.15.02-1.93-.47-2.55-2.45-2.53-8.72.1-17.44.1-26.15,0-2.03-.02-2.48.67-2.42,2.56.14,4.26.04,8.52.04,12.78Zm270.05,38.8c0,4.36.06,8.72-.03,13.08-.04,1.68.23,2.42,2.21,2.4,8.82-.12,17.64-.1,26.46,0,1.79.02,2.38-.41,2.36-2.29-.1-8.82-.1-17.64,0-26.46.02-1.91-.64-2.29-2.39-2.28-8.82.08-17.64.07-26.46,0-1.69-.01-2.22.48-2.18,2.18.1,4.46.04,8.92.04,13.38Zm-77.16-38.5c0,4.46.06,8.92-.03,13.37-.03,1.55.42,2.04,2,2.02,9.02-.07,18.03-.07,27.05,0,1.61.01,1.97-.55,1.96-2.06-.06-8.92-.07-17.83,0-26.75.01-1.66-.41-2.23-2.14-2.21-8.92.07-17.83.07-26.75,0-1.76-.02-2.15.63-2.12,2.25.1,4.46.03,8.92.03,13.37Zm38.59-.3c0,4.56.06,9.12-.03,13.67-.03,1.53.38,2.04,1.98,2.03,9.02-.07,18.03-.06,27.05,0,1.6.01,1.99-.54,1.98-2.06-.06-8.92-.09-17.84.01-26.75.02-2-.78-2.23-2.46-2.22-8.72.07-17.44.1-26.16-.01-2.03-.02-2.48.66-2.42,2.55.14,4.26.04,8.52.04,12.78Zm154.25.04c0,4.46.1,8.92-.05,13.37-.06,1.88.56,2.31,2.35,2.29,8.82-.09,17.64-.07,26.45,0,1.6.01,2.24-.3,2.22-2.08-.09-8.92-.09-17.83,0-26.75.02-1.71-.51-2.2-2.18-2.18-8.92.07-17.84.08-26.75,0-1.85-.02-2.09.75-2.06,2.29.08,4.36.03,8.72.02,13.08Zm53.95,15.63v-.03c4.56,0,9.12-.02,13.68.02,1.23.01,1.99-.04,1.98-1.69-.08-9.12-.05-18.23,0-27.35,0-1.37-.33-1.94-1.81-1.94-9.12.05-18.23.05-27.35,0-1.45,0-1.84.51-1.83,1.91.05,9.02.08,18.04-.02,27.05-.02,1.84.73,2.07,2.27,2.05,4.36-.08,8.72-.03,13.08-.03Zm-308.91,115.79c4.56,0,9.12-.03,13.67.02,1.32.01,2.23-.02,2.21-1.82-.08-9.12-.06-18.23,0-27.35,0-1.46-.5-1.82-1.88-1.81-9.02.05-18.03.05-27.05,0-1.47,0-2.1.3-2.09,1.95.07,9.02.07,18.03,0,27.05-.01,1.58.51,2.03,2.05,2,4.36-.09,8.72-.03,13.08-.03Zm-22.62-15.4c0-4.46-.02-8.92.01-13.37.01-1.31,0-2.22-1.82-2.21-9.11.08-18.23.07-27.34,0-1.46,0-1.83.49-1.83,1.88.05,9.01.04,18.03,0,27.04,0,1.46.33,2.1,1.97,2.09,9.01-.07,18.03-.07,27.04,0,1.6.01,2.02-.53,1.99-2.06-.09-4.46-.03-8.92-.02-13.37Zm154.27-77.37c0-4.36-.08-8.72.04-13.08.05-1.79-.41-2.39-2.3-2.37-8.82.1-17.64.1-26.46,0-1.93-.02-2.27.66-2.26,2.39.08,8.82.08,17.64,0,26.46-.01,1.66.42,2.19,2.13,2.17,8.92-.08,17.84-.09,26.76,0,1.75.02,2.16-.56,2.12-2.2-.1-4.46-.03-8.92-.04-13.38Zm-223.84,77.12h.02c0,4.56.06,9.12-.03,13.67-.03,1.57.45,2.03,2.01,2.02,9.02-.07,18.04-.08,27.05,0,1.7.01,1.93-.71,1.92-2.13-.04-8.92-.06-17.84.02-26.76.02-1.76-.59-2.12-2.22-2.11-8.82.07-17.64.1-26.46-.04-2.11-.03-2.4.76-2.36,2.56.11,4.26.04,8.52.04,12.78Zm169.84-92.52c-4.46,0-8.92.07-13.38-.04-1.68-.04-2.2.47-2.19,2.17.08,8.92.07,17.84.01,26.76,0,1.46.25,2.1,1.92,2.09,9.02-.08,18.04-.07,27.06,0,1.53.01,2.04-.39,2.02-1.98-.07-9.02-.07-18.04,0-27.06.01-1.63-.57-2-2.07-1.97-4.46.08-8.92.03-13.38.03Zm77.05,185.21c4.46,0,8.92-.07,13.38.04,1.7.04,2.2-.48,2.18-2.18-.08-8.82-.1-17.65,0-26.47.02-1.95-.69-2.28-2.41-2.26-8.72.07-17.45.1-26.17-.01-2-.02-2.48.6-2.46,2.52.1,8.72.11,17.45,0,26.17-.03,1.95.66,2.28,2.38,2.24,4.36-.11,8.72-.04,13.09-.04ZM54.01,108.06c4.46,0,8.92-.06,13.38.03,1.64.04,2.23-.39,2.21-2.14-.08-8.92-.08-17.84,0-26.76.01-1.63-.58-1.97-2.07-1.96-9.02.06-18.04.05-27.06,0-1.39,0-1.89.36-1.88,1.82.06,9.02.07,18.04,0,27.06-.01,1.59.51,2.01,2.03,1.98,4.46-.09,8.92-.03,13.38-.04Zm38.52-30.8c-4.36,0-8.72.1-13.08-.05-1.89-.06-2.3.55-2.28,2.33.09,8.72.08,17.44,0,26.16-.01,1.7.26,2.43,2.22,2.41,8.82-.11,17.64-.09,26.46,0,1.82.02,2.37-.51,2.35-2.35-.09-8.72-.12-17.44.01-26.16.03-2.15-.83-2.42-2.61-2.38-4.36.1-8.72.03-13.08.03Zm115.78,0c-4.46,0-8.92.05-13.38-.03-1.47-.02-2.09.31-2.08,1.95.08,8.92.08,17.84,0,26.76-.02,1.75.6,2.16,2.22,2.14,8.92-.06,17.84-.06,26.76,0,1.53.01,2.04-.38,2.02-1.97-.07-8.92-.08-17.84,0-26.76.02-1.71-.5-2.17-2.17-2.13-4.46.11-8.92.04-13.38.03Zm77.05,30.82h0c4.56-.01,9.12-.06,13.68.01,1.51.02,2.07-.41,2.06-2-.07-8.92-.08-17.84.01-26.76.02-1.8-.66-2.11-2.24-2.1-8.92.06-17.84.07-26.76,0-1.55-.01-2.02.42-2.01,1.99.07,8.92.08,17.84,0,26.76-.02,1.74.56,2.17,2.19,2.13,4.36-.1,8.72-.03,13.08-.03Zm131.37-15.45c0-4.46-.06-8.92.03-13.38.03-1.52-.38-2.03-1.97-2.02-8.92.07-17.84.09-26.76,0-1.88-.02-2.31.62-2.29,2.38.08,8.72.09,17.44,0,26.16-.02,1.84.54,2.36,2.35,2.34,8.82-.09,17.64-.11,26.46,0,1.98.03,2.25-.72,2.21-2.41-.1-4.36-.03-8.72-.03-13.08Zm7.64-.02c0,4.26.09,8.53-.04,12.79-.06,1.96.32,2.76,2.54,2.73,8.72-.13,17.45-.1,26.17,0,1.83.02,2.33-.49,2.31-2.32-.1-8.82-.08-17.65-.03-26.47,0-1.43-.18-2.09-1.88-2.08-9.02.08-18.04.08-27.06-.03-1.87-.02-2.06.78-2.03,2.3.07,4.36.03,8.72.02,13.09Zm-177.7,246.9c4.56,0,9.12-.07,13.67.04,1.68.04,2.17-.46,2.16-2.15-.08-8.82-.09-17.64.01-26.46.02-1.88-.58-2.3-2.35-2.28-8.72.09-17.44.09-26.16,0-1.93-.02-2.54.55-2.52,2.5.09,8.72.11,17.44,0,26.16-.03,1.98.72,2.26,2.41,2.23,4.26-.1,8.52-.03,12.78-.04Zm23.45-15.67c0,4.56.06,9.12-.03,13.67-.03,1.52.35,2.05,1.96,2.04,8.92-.08,17.83-.09,26.75,0,1.87.02,2.33-.64,2.31-2.4-.08-8.72-.1-17.44,0-26.15.02-1.86-.56-2.35-2.36-2.33-8.82.08-17.63.09-26.45-.02-1.97-.03-2.25.72-2.21,2.42.11,4.26.03,8.52.04,12.78Zm208.37-246.57h0c-4.36-.01-8.73.1-13.08-.06-2.02-.07-2.45.63-2.43,2.5.09,8.72.07,17.45,0,26.17-.01,1.61.34,2.24,2.1,2.23,8.92-.08,17.85-.08,26.77,0,1.74.02,2.15-.56,2.13-2.2-.07-8.82-.1-17.65.02-26.47.03-1.99-.74-2.25-2.42-2.21-4.36.1-8.72.03-13.09.03Zm-216.02,15.36c0-4.46-.06-8.92.03-13.38.03-1.55-.41-2.04-1.99-2.02-8.92.07-17.84.1-26.76,0-1.92-.02-2.28.62-2.26,2.38.09,8.72.09,17.45,0,26.17-.02,1.82.47,2.37,2.31,2.35,8.82-.09,17.65-.1,26.47,0,1.95.02,2.28-.69,2.23-2.41-.11-4.36-.04-8.72-.03-13.08Zm100.37-15.36c-4.36,0-8.71.09-13.06-.04-1.87-.05-2.55.39-2.53,2.41.11,8.71.1,17.42,0,26.13-.02,1.81.46,2.37,2.31,2.35,8.81-.09,17.62-.07,26.43-.01,1.61.01,2.26-.38,2.24-2.13-.08-8.91-.07-17.82,0-26.72.01-1.55-.47-2.04-2.03-2.01-4.45.09-8.91.03-13.36.03Zm-193.13,262.26c4.55,0,9.11-.04,13.66.03,1.33.02,1.94-.22,1.93-1.75-.07-9.11-.06-18.22,0-27.33,0-1.45-.49-1.84-1.88-1.83-9.01.05-18.02.07-27.03,0-1.76-.02-2.12.62-2.11,2.24.07,8.81.09,17.62-.02,26.44-.02,1.93.65,2.3,2.39,2.26,4.35-.11,8.71-.04,13.07-.03Zm.18-231.42c4.36,0,8.71-.08,13.07.04,1.79.05,2.38-.41,2.35-2.29-.1-8.81-.08-17.62-.01-26.43.01-1.6-.31-2.23-2.08-2.21-8.91.09-17.82.07-26.73.01-1.59-.01-2.25.31-2.23,2.1.09,8.91.09,17.82,0,26.73-.02,1.84.72,2.1,2.27,2.07,4.45-.08,8.91-.03,13.36-.02Zm-38.78,38.59c4.56,0,9.12-.06,13.68.03,1.56.03,2.04-.43,2.03-2-.07-9.02-.07-18.04,0-27.06.01-1.67-.67-1.96-2.12-1.95-8.92.04-17.85.06-26.77-.02-1.73-.02-2.18.57-2.17,2.22.07,8.82.11,17.65,0,26.47-.03,2.09.76,2.41,2.57,2.36,4.26-.12,8.52-.04,12.79-.03Z"/>
  <path class="cls-1" d="m323.98,146.69c-4.36,0-8.73-.11-13.09.05-1.93.07-2.28-.59-2.26-2.36.08-8.83.07-17.65,0-26.48-.01-1.63.36-2.25,2.13-2.23,8.93.09,17.85.08,26.78,0,1.75-.02,2.15.6,2.14,2.24-.07,8.93-.07,17.85,0,26.78.01,1.56-.43,2.06-2,2.03-4.56-.09-9.12-.03-13.69-.03Z"/>
  <path class="cls-1" d="m169.89,270.07c4.46,0,8.93.06,13.39-.04,1.54-.03,2.04.38,2.02,1.97-.07,9.02-.07,18.05,0,27.07.01,1.6-.53,2-2.06,1.99-8.92-.06-17.85-.07-26.77,0-1.68.01-2.22-.46-2.2-2.17.07-8.92.08-17.85,0-26.77-.02-1.8.67-2.12,2.25-2.09,4.46.08,8.92.03,13.39.03Z"/>
  <path class="cls-1" d="m362.87,270.07c4.46,0,8.92.06,13.38-.03,1.58-.03,2.03.49,2.02,2.03-.06,8.92-.06,17.84,0,26.76.01,1.62-.4,2.26-2.15,2.25-8.92-.08-17.84-.08-26.76,0-1.76.02-2.14-.61-2.13-2.24.07-8.82.08-17.64,0-26.46-.02-1.78.37-2.42,2.27-2.36,4.45.15,8.92.05,13.38.05Z"/>
  <path class="cls-1" d="m347.27,131.23c0-4.46.08-8.92-.04-13.37-.04-1.73.56-2.18,2.21-2.17,8.92.07,17.83.06,26.75,0,1.53,0,2.08.45,2.07,2.02-.06,9.02-.06,18.03,0,27.05.01,1.61-.57,1.98-2.08,1.97-8.92-.06-17.83-.1-26.75.02-2.01.03-2.24-.76-2.2-2.43.1-4.36.03-8.72.03-13.08Z"/>
  <path class="cls-1" d="m378.23,208.37c0,4.26-.09,8.52.04,12.77.06,1.93-.27,2.77-2.53,2.74-8.71-.14-17.43-.1-26.14-.02-1.75.02-2.4-.33-2.38-2.26.11-8.81.1-17.63,0-26.44-.02-1.89.59-2.29,2.37-2.27,8.71.09,17.43.12,26.14-.02,2.23-.04,2.59.77,2.53,2.72-.13,4.25-.04,8.52-.04,12.77h0Z"/>
  <path class="cls-1" d="m347.26,15.28c0-4.36.07-8.72-.04-13.08-.04-1.67.44-2.2,2.15-2.18,8.92.08,17.84.09,26.76,0,1.78-.02,2.14.62,2.13,2.22-.06,8.82-.08,17.64,0,26.46.02,1.79-.44,2.36-2.31,2.34-8.82-.1-17.64-.11-26.46,0-1.93.02-2.3-.65-2.26-2.38.1-4.46.03-8.92.03-13.38Z"/>
  <path class="cls-1" d="m362.81,69.59c-4.46,0-8.92-.07-13.37.03-1.66.04-2.23-.44-2.22-2.16.07-8.91.08-17.83,0-26.74-.02-1.75.57-2.14,2.21-2.13,8.91.07,17.83.06,26.74,0,1.5,0,2.09.35,2.08,1.97-.06,9.01-.06,18.02,0,27.04,0,1.56-.54,2.04-2.07,2.01-4.46-.09-8.91-.03-13.37-.03Z"/>
  <path class="cls-1" d="m378.23,247.06c0,4.46-.05,8.92.02,13.37.03,1.5-.39,2.08-2,2.06-9.02-.07-18.03-.07-27.05,0-1.63.01-1.98-.6-1.97-2.08.05-9.02.04-18.03,0-27.05,0-1.38.37-1.89,1.84-1.88,9.11.06,18.23.08,27.34,0,1.82-.02,1.84.89,1.83,2.2-.03,4.46-.01,8.92-.01,13.37Z"/>
  <path class="cls-1" d="m362.42,185.23c-4.26,0-8.52-.07-12.77.04-1.69.04-2.45-.22-2.43-2.21.11-8.81.08-17.63,0-26.44-.02-1.75.37-2.4,2.29-2.37,8.71.11,17.43.09,26.14.02,1.82-.02,2.62.35,2.6,2.4-.1,8.81-.07,17.63,0,26.44.01,1.67-.47,2.21-2.17,2.17-4.55-.11-9.11-.04-13.67-.04Z"/>
  <path class="cls-1" d="m92.53.05c4.46,0,8.92.09,13.38-.04,1.89-.06,2.32.58,2.3,2.36-.08,8.82-.07,17.64,0,26.46.01,1.64-.41,2.22-2.15,2.2-8.92-.09-17.84-.09-26.76,0-1.75.02-2.13-.57-2.12-2.21.07-8.82.08-17.64,0-26.46-.02-1.77.36-2.42,2.27-2.36,4.36.15,8.72.05,13.08.05Z"/>
  <path class="cls-1" d="m130.98,30.99c-4.26,0-8.52-.07-12.78.04-1.71.04-2.43-.26-2.41-2.22.11-8.82.09-17.64,0-26.46-.02-1.78.41-2.37,2.29-2.35,8.82.1,17.64.1,26.46,0,1.9-.02,2.3.62,2.29,2.38-.08,8.82-.07,17.64,0,26.46.01,1.67-.46,2.22-2.17,2.18-4.56-.11-9.12-.04-13.67-.04Z"/>
  <path class="cls-1" d="m169.9.05c4.46,0,8.92.06,13.38-.03,1.56-.03,2.03.44,2.02,2-.07,9.02-.07,18.03,0,27.05.01,1.63-.59,1.96-2.07,1.95-8.92-.06-17.84-.07-26.75,0-1.68.01-2.21-.47-2.2-2.16.07-8.92.08-17.84,0-26.75-.02-1.8.66-2.13,2.26-2.09,4.46.09,8.92.03,13.38.03Z"/>
  <path class="cls-1" d="m308.68,15.35c0-4.36.06-8.72-.03-13.08-.03-1.56.24-2.28,2.06-2.26,9.02.09,18.03.07,27.05.01,1.39,0,1.91.37,1.9,1.83-.05,9.12-.05,18.23,0,27.35,0,1.48-.56,1.82-1.93,1.81-9.02-.05-18.03-.05-27.05.01-1.55.01-2.04-.44-2-2,.09-4.56.03-9.11.03-13.67-.01,0-.02,0-.03,0Z"/>
  <path class="cls-1" d="m130.9,185.23c-4.36,0-8.72-.06-13.07.03-1.55.03-2.04-.42-2.03-1.99.06-9.01.06-18.03,0-27.04-.01-1.61.59-1.99,2.09-1.98,8.91.06,17.83.07,26.74-.01,1.69-.01,2.21.49,2.19,2.18-.07,8.91-.08,17.83,0,26.74.02,1.78-.64,2.13-2.25,2.09-4.55-.1-9.11-.03-13.67-.03Z"/>
  <path class="cls-1" d="m285.65,270.08c4.46,0,8.91.05,13.37-.03,1.49-.02,2.09.36,2.07,1.97-.07,9.01-.07,18.03,0,27.04.01,1.58-.51,2.02-2.05,2.01-8.91-.06-17.83-.07-26.74,0-1.62.01-2.24-.37-2.22-2.13.09-8.91.08-17.83,0-26.74-.01-1.7.55-2.18,2.2-2.14,4.45.1,8.91.03,13.37.03Z"/>
  <path class="cls-1" d="m246.67,301.04c-4.26,0-8.52-.06-12.78.04-1.72.04-2.44-.31-2.41-2.26.11-8.91.08-17.83.01-26.74-.01-1.55.44-2.03,2-2.02,8.91.06,17.83.08,26.74,0,1.89-.02,2.27.64,2.26,2.4-.08,8.82-.08,17.63.01,26.45.02,1.7-.47,2.22-2.16,2.19-4.55-.1-9.11-.03-13.67-.03Z"/>
  <path class="cls-1" d="m223.82,285.45c0,4.36-.08,8.72.04,13.08.05,1.87-.35,2.59-2.41,2.56-8.72-.12-17.44-.11-26.16,0-1.99.02-2.48-.59-2.46-2.52.1-8.72.09-17.44,0-26.16-.02-1.77.42-2.39,2.29-2.37,8.82.09,17.64.1,26.46,0,1.87-.02,2.33.53,2.28,2.34-.13,4.36-.04,8.72-.04,13.08Z"/>
  <path class="cls-1" d="m400.86,223.82c-4.36,0-8.71-.06-13.07.03-1.53.03-2.06-.41-2.05-2,.06-9.01.05-18.02.01-27.02,0-1.33.29-1.94,1.8-1.93,9.11.06,18.21.05,27.32,0,1.39,0,1.89.37,1.88,1.82-.06,9.11-.07,18.21-.02,27.32,0,1.5-.58,1.79-1.92,1.78-4.65-.06-9.3-.02-13.96-.02v.02Z"/>
  <path class="cls-1" d="m77.2,53.64c0-4.26.1-8.53-.05-12.78-.07-1.9.56-2.29,2.35-2.27,8.82.09,17.64.08,26.46.01,1.6-.01,2.26.32,2.25,2.11-.09,8.92-.08,17.84,0,26.76.01,1.73-.56,2.17-2.22,2.16-8.82-.07-17.64-.08-26.46,0-1.8.02-2.41-.44-2.36-2.31.13-4.55.04-9.12.04-13.67,0,0,0,0,0,0Z"/>
  <path class="cls-1" d="m146.79,54.17c0,4.46-.05,8.91.03,13.37.03,1.5-.38,2.09-2,2.08-9.01-.07-18.02-.07-27.04,0-1.63.01-1.99-.62-1.98-2.1.05-9.01.05-18.02,0-27.04,0-1.37.36-1.89,1.82-1.88,9.11.06,18.22.07,27.33,0,1.81-.02,1.84.9,1.83,2.21-.04,4.46-.01,8.91-.01,13.37Z"/>
  <path class="cls-1" d="m169.91,38.63c4.46,0,8.92.06,13.38-.03,1.55-.03,2.03.41,2.02,1.99-.07,9.02-.07,18.03-.01,27.05.01,1.61-.59,1.99-2.08,1.98-9.02-.05-18.03-.05-27.05,0-1.43,0-1.88-.46-1.88-1.88.05-9.12.05-18.23,0-27.35,0-1.52.64-1.8,1.96-1.78,4.56.05,9.12.02,13.67.02Z"/>
  <path class="cls-1" d="m223.82,54c0,4.36-.09,8.72.04,13.07.05,1.87-.35,2.58-2.41,2.56-8.72-.11-17.43-.11-26.15,0-1.98.02-2.49-.58-2.47-2.51.11-8.72.1-17.43.02-26.15-.02-1.77.4-2.4,2.29-2.38,8.82.1,17.63.11,26.45,0,1.89-.02,2.32.56,2.27,2.34-.13,4.35-.04,8.72-.04,13.07Z"/>
  <path class="cls-1" d="m270.11,53.93c0-4.36.05-8.72-.03-13.08-.03-1.54.21-2.28,2.04-2.26,9.02.1,18.04.1,27.05.02,1.72-.02,1.91.69,1.91,2.11-.05,8.92-.07,17.84,0,26.76.02,1.74-.59,2.16-2.22,2.15-8.92-.07-17.84-.06-26.76,0-1.55.01-2.05-.45-2.01-2.02.1-4.56.03-9.12.03-13.67,0,0-.02,0-.02,0Z"/>
  <path class="cls-1" d="m324.31,69.59c-4.46,0-8.92-.05-13.37.03-1.54.02-2.32-.23-2.3-2.07.09-9.01.08-18.03,0-27.04-.01-1.67.67-1.91,2.11-1.9,8.91.05,17.83.07,26.75,0,1.7-.01,2.19.5,2.17,2.19-.08,8.82-.1,17.63.01,26.45.03,2.09-.75,2.45-2.59,2.39-4.26-.12-8.52-.04-12.78-.04Z"/>
  <path class="cls-1" d="m401.23,38.63c4.46,0,8.92.08,13.37-.03,1.69-.04,2.17.46,2.15,2.15-.08,8.92-.06,17.83-.01,26.75,0,1.43-.23,2.14-1.92,2.13-9.02-.07-18.03-.06-27.05,0-1.55.01-2.06-.45-2.04-2.03.07-9.01.08-18.03.02-27.05-.01-1.66.64-1.97,2.1-1.95,4.46.07,8.92.03,13.37.03Z"/>
  <path class="cls-1" d="m424.36,54.22c0-4.46.06-8.92-.03-13.38-.03-1.59.28-2.27,2.08-2.25,9.02.09,18.04.07,27.05.02,1.39,0,1.88.37,1.87,1.83-.06,9.12-.06,18.23,0,27.35,0,1.47-.55,1.83-1.91,1.82-9.02-.05-18.04-.06-27.05,0-1.55.01-2.07-.45-2.03-2.02.09-4.46.03-8.92.03-13.38Z"/>
  <path class="cls-1" d="m92.78,185.23c-4.46,0-8.92-.06-13.38.03-1.57.03-2.25-.27-2.23-2.07.09-8.92.08-17.83,0-26.75-.01-1.67.45-2.21,2.16-2.19,8.92.08,17.83.08,26.75,0,1.8-.02,2.12.68,2.11,2.27-.06,8.82-.08,17.64.01,26.45.02,1.87-.55,2.35-2.36,2.3-4.36-.13-8.72-.04-13.08-.04Z"/>
  <path class="cls-1" d="m53.9,185.22c-4.36,0-8.72-.07-13.08.04-1.59.04-2.26-.25-2.24-2.05.09-8.92.08-17.84,0-26.76-.01-1.68.46-2.2,2.16-2.19,8.92.08,17.84.08,26.76,0,1.8-.02,2.1.68,2.09,2.26-.06,8.82-.08,17.64.02,26.46.02,1.87-.53,2.35-2.34,2.3-4.46-.13-8.92-.04-13.38-.04,0,0,0,0,0-.01Z"/>
  <path class="cls-1" d="m30.98,169.93c0,4.36-.11,8.72.05,13.08.07,1.92-.59,2.28-2.35,2.26-8.82-.09-17.64-.08-26.46,0-1.63.01-2.23-.36-2.22-2.11.08-8.92.08-17.84,0-26.76-.02-1.74.57-2.15,2.22-2.14,8.82.07,17.64.08,26.46,0,1.81-.02,2.4.43,2.35,2.31-.14,4.46-.04,8.92-.04,13.38Z"/>
  <path class="cls-1" d="m208.24,146.68c-4.36,0-8.72-.04-13.08.02-1.49.02-2.32-.13-2.3-2.03.09-9.02.07-18.03,0-27.05-.01-1.68.67-1.95,2.12-1.94,8.92.06,17.83.09,26.75.02,1.72-.01,2.16.52,2.14,2.19-.08,8.92-.09,17.84,0,26.75.02,1.83-.69,2.08-2.25,2.05-4.46-.09-8.92-.03-13.38-.03h0Z"/>
  <path class="cls-1" d="m308.68,208.07c0-4.16.09-8.32-.04-12.47-.06-1.95.3-2.75,2.52-2.72,8.71.14,17.42.1,26.13.02,1.76-.02,2.41.36,2.39,2.27-.1,8.81-.1,17.62,0,26.43.02,1.91-.65,2.28-2.39,2.26-8.81-.08-17.62-.06-26.43.01-1.65.01-2.23-.43-2.19-2.14.11-4.55.04-9.11.04-13.66h-.02Z"/>
  <path class="cls-1" d="m54.43,192.93c4.26,0,8.52.07,12.78-.03,1.7-.04,2.44.26,2.42,2.23-.11,8.81-.1,17.63,0,26.45.02,1.87-.55,2.31-2.35,2.29-8.81-.09-17.63-.07-26.45,0-1.59.01-2.25-.28-2.23-2.08.09-8.91.08-17.83-.01-26.74-.02-1.73.53-2.15,2.19-2.11,4.55.11,9.11.04,13.67.04,0,0,0-.01,0-.02Z"/>
  <path class="cls-1" d="m92.53,223.82c-4.36,0-8.71-.05-13.07.03-1.52.03-2.31-.17-2.29-2.03.09-9.01.06-18.02.02-27.02,0-1.37.33-1.9,1.81-1.89,9.11.06,18.21.06,27.32,0,1.43,0,1.88.45,1.87,1.86-.05,9.01-.07,18.02.02,27.02.02,1.87-.8,2.06-2.32,2.04-4.45-.07-8.91-.03-13.36-.03,0,0,0,.01,0,.02Z"/>
  <path class="cls-1" d="m416.73,246.77c0,4.56-.05,9.12.03,13.68.03,1.51-.38,2.07-1.99,2.05-9.02-.07-18.04-.07-27.06,0-1.65.01-1.97-.62-1.97-2.09.05-9.02.05-18.04,0-27.06,0-1.44.46-1.86,1.88-1.85,9.12.05,18.24.05,27.35-.01,1.5-.01,1.8.55,1.78,1.91-.07,4.46-.03,8.92-.03,13.38Z"/>
  <path class="cls-1" d="m131.2,192.93c4.45,0,8.91.05,13.36-.03,1.56-.03,2.29.27,2.27,2.08-.09,8.91-.08,17.82,0,26.73.01,1.71-.54,2.16-2.21,2.14-8.91-.08-17.82-.06-26.73,0-1.49.01-2.08-.32-2.07-1.95.06-9.01.05-18.02-.02-27.02-.01-1.58.5-2.01,2.03-1.98,4.45.09,8.91.03,13.36.03Z"/>
  <path class="cls-1" d="m207.99,185.23c-4.26,0-8.53-.08-12.78.04-1.75.05-2.4-.34-2.37-2.26.11-8.82.1-17.64,0-26.46-.02-1.88.57-2.32,2.37-2.3,8.82.09,17.64.08,26.46,0,1.65-.01,2.21.41,2.2,2.14-.08,8.92-.08,17.84,0,26.76.02,1.74-.57,2.14-2.2,2.11-4.56-.1-9.12-.03-13.68-.03Z"/>
  <path class="cls-1" d="m285.4,223.83c-4.36,0-8.72-.06-13.07.03-1.57.03-2.27-.24-2.25-2.06.09-8.91.09-17.83,0-26.74-.02-1.7.49-2.17,2.17-2.15,8.91.08,17.83.06,26.74.01,1.44,0,2.12.25,2.11,1.92-.07,9.01-.07,18.03,0,27.04.01,1.59-.49,2.02-2.03,1.99-4.55-.09-9.11-.03-13.67-.03Z"/>
  <path class="cls-1" d="m339.63,246.95c0,4.46-.07,8.92.03,13.37.04,1.67-.46,2.2-2.18,2.18-8.91-.08-17.83-.08-26.74,0-1.8.02-2.1-.67-2.09-2.25.06-8.81.08-17.63-.01-26.44-.02-1.82.5-2.35,2.33-2.33,8.81.09,17.63.1,26.45,0,1.94-.02,2.3.66,2.25,2.4-.11,4.36-.04,8.72-.04,13.07Z"/>
  <path class="cls-1" d="m223.82,362.82c0,4.36-.11,8.72.05,13.08.07,1.91-.58,2.28-2.34,2.27-8.82-.09-17.63-.08-26.45,0-1.61.01-2.25-.33-2.23-2.1.09-8.92.09-17.83.01-26.75-.01-1.74.61-2.19,2.23-2.17,8.92.06,17.83.07,26.75.01,1.55-.01,2.06.44,2.03,2.01-.09,4.56-.03,9.11-.03,13.67Z"/>
  <path class="cls-1" d="m262.46,362.56c0,4.46-.07,8.92.03,13.38.04,1.62-.32,2.24-2.09,2.22-8.92-.09-17.84-.08-26.76,0-1.69.01-2.17-.48-2.16-2.16.08-8.92.08-17.84,0-26.76-.02-1.79.66-2.11,2.26-2.1,8.82.06,17.64.08,26.46-.02,1.87-.02,2.35.56,2.31,2.35-.12,4.36-.04,8.72-.04,13.08Z"/>
  <path class="cls-1" d="m301.06,247.06c0,4.46-.05,8.92.03,13.38.03,1.52-.4,2.06-2,2.05-9.02-.07-18.04-.06-27.06.02-1.69.02-1.92-.68-1.91-2.11.04-8.92.04-17.84-.04-26.76-.01-1.66.46-2.17,2.15-2.16,8.92.08,17.84.08,26.76-.02,1.78-.02,2.12.61,2.08,2.22-.1,4.46-.04,8.92-.04,13.38h.02Z"/>
  <path class="cls-1" d="m301.06,362.82c0,4.36-.06,8.72.03,13.08.03,1.58-.27,2.28-2.08,2.26-9.02-.09-18.04-.07-27.05-.01-1.4,0-1.88-.38-1.87-1.82.06-9.12.06-18.23,0-27.35,0-1.47.53-1.83,1.91-1.83,9.02.04,18.04.04,27.05-.02,1.53-.01,2.08.42,2.05,2.02-.09,4.56-.03,9.12-.04,13.68Z"/>
  <path class="cls-1" d="m185.26,208.41c0,4.36-.07,8.71.04,13.07.04,1.71-.29,2.42-2.24,2.39-8.91-.11-17.82-.08-26.73-.02-1.52.01-2.07-.4-2.06-1.99.06-9.01.06-18.02,0-27.03-.01-1.66.66-1.94,2.12-1.93,8.91.05,17.82.06,26.73,0,1.65-.01,2.22.43,2.18,2.14-.11,4.45-.04,8.91-.04,13.36Z"/>
  <path class="cls-1" d="m439.73,185.23c-4.46,0-8.92-.06-13.38.03-1.54.03-2.03-.4-2.02-1.99.07-9.02.07-18.04,0-27.06-.01-1.65.62-1.96,2.09-1.95,8.92.05,17.84.07,26.76-.01,1.71-.01,2.18.5,2.16,2.18-.08,8.92-.09,17.84,0,26.76.02,1.81-.67,2.1-2.24,2.07-4.46-.09-8.92-.03-13.38-.03Z"/>
  <path class="cls-1" d="m231.52,246.76c0-4.36.07-8.72-.04-13.08-.04-1.65.39-2.21,2.12-2.19,8.92.08,17.84.08,26.76,0,1.73-.02,2.14.53,2.12,2.19-.08,8.82-.08,17.64,0,26.46.02,1.75-.34,2.4-2.26,2.38-8.82-.11-17.64-.1-26.46,0-1.89.02-2.34-.58-2.29-2.37.12-4.46.04-8.92.04-13.38Z"/>
  <path class="cls-1" d="m401.15,185.23c-4.46,0-8.92-.06-13.38.03-1.54.03-2.05-.42-2.04-2,.06-9.02.06-18.03,0-27.05-.01-1.63.64-1.97,2.12-1.96,8.92.05,17.84.07,26.75,0,1.72-.01,2.17.54,2.16,2.2-.07,8.92-.09,17.84,0,26.75.02,1.81-.68,2.09-2.24,2.06-4.46-.08-8.92-.03-13.38-.03Z"/>
  <path class="cls-1" d="m30.98,131.3c0,4.46-.06,8.92.03,13.38.03,1.52-.37,2.04-1.97,2.03-9.02-.07-18.04-.07-27.05,0-1.6.01-1.99-.55-1.98-2.06.06-9.02.05-18.03,0-27.05,0-1.4.4-1.92,1.84-1.91,9.12.05,18.23.06,27.35,0,1.49,0,1.82.58,1.8,1.94-.06,4.56-.02,9.12-.02,13.67Z"/>
  <path class="cls-1" d="m38.63,131.01c0-4.26.09-8.52-.04-12.78-.06-1.89.39-2.58,2.42-2.56,8.72.11,17.44.1,26.15,0,1.99-.02,2.48.59,2.45,2.53-.1,8.72-.1,17.44,0,26.15.02,1.79-.41,2.38-2.29,2.36-8.82-.1-17.64-.1-26.45,0-1.86.02-2.34-.52-2.29-2.33.13-4.45.04-8.92.04-13.37Z"/>
  <path class="cls-1" d="m308.68,169.81c0-4.46.07-8.92-.04-13.38-.04-1.7.5-2.19,2.18-2.18,8.82.08,17.64.08,26.46,0,1.75-.02,2.41.36,2.39,2.28-.1,8.82-.1,17.64,0,26.46.02,1.88-.57,2.31-2.36,2.29-8.82-.09-17.64-.11-26.46,0-1.98.03-2.25-.72-2.21-2.4.1-4.36.03-8.72.03-13.08Z"/>
  <path class="cls-1" d="m231.52,131.3c0-4.46.06-8.92-.03-13.37-.03-1.62.36-2.27,2.12-2.25,8.92.08,17.83.08,26.75,0,1.73-.01,2.15.56,2.14,2.21-.07,8.92-.06,17.83,0,26.75.01,1.51-.35,2.07-1.96,2.06-9.02-.07-18.03-.07-27.05,0-1.57.01-2.03-.48-2-2.02.09-4.46.03-8.92.03-13.37Z"/>
  <path class="cls-1" d="m270.11,131.01c0-4.26.09-8.52-.04-12.78-.06-1.89.38-2.58,2.42-2.55,8.72.11,17.44.08,26.16.01,1.67-.01,2.48.22,2.46,2.22-.11,8.92-.08,17.83-.01,26.75.01,1.51-.38,2.07-1.98,2.06-9.02-.07-18.03-.07-27.05,0-1.59.01-2.01-.5-1.98-2.03.09-4.56.03-9.12.03-13.67Z"/>
  <path class="cls-1" d="m424.37,131.04c0-4.36.05-8.72-.02-13.08-.03-1.54.22-2.31,2.06-2.29,8.92.09,17.83.08,26.75,0,1.67-.01,2.2.48,2.18,2.18-.08,8.92-.09,17.83,0,26.75.02,1.79-.63,2.1-2.22,2.08-8.82-.07-17.64-.08-26.45,0-1.79.02-2.41-.41-2.35-2.29.14-4.45.05-8.92.05-13.37Z"/>
  <path class="cls-1" d="m478.32,146.67c-4.36,0-8.72-.05-13.08.03-1.54.03-2.29-.2-2.27-2.05.09-9.02.07-18.04.02-27.05,0-1.4.38-1.92,1.83-1.91,9.12.05,18.23.05,27.35,0,1.48,0,1.82.57,1.81,1.94-.05,9.12-.08,18.23,0,27.35.01,1.64-.75,1.7-1.98,1.69-4.56-.04-9.12-.02-13.68-.02v.03Z"/>
  <path class="cls-1" d="m169.4,262.46c-4.36,0-8.72-.06-13.08.03-1.54.03-2.06-.42-2.05-2,.06-9.02.07-18.03,0-27.05-.01-1.64.61-1.96,2.09-1.95,9.02.05,18.03.05,27.05,0,1.38,0,1.89.36,1.88,1.81-.06,9.12-.07,18.23,0,27.35.02,1.8-.89,1.83-2.21,1.82-4.56-.04-9.12-.02-13.67-.02Z"/>
  <path class="cls-1" d="m146.78,247.07c0,4.46-.06,8.92.03,13.37.03,1.53-.4,2.07-1.99,2.06-9.01-.07-18.03-.07-27.04,0-1.64.01-1.98-.62-1.97-2.09.05-9.01.05-18.03,0-27.04,0-1.39.37-1.89,1.83-1.88,9.11.06,18.23.08,27.34,0,1.81-.02,1.83.89,1.82,2.21-.04,4.46-.01,8.92-.02,13.37Z"/>
  <path class="cls-1" d="m301.06,169.69c0,4.46-.06,8.92.04,13.38.04,1.64-.37,2.22-2.12,2.2-8.92-.09-17.84-.08-26.76,0-1.72.02-2.15-.51-2.13-2.17.08-8.82.08-17.64,0-26.46-.02-1.74.33-2.42,2.26-2.39,8.82.11,17.64.1,26.46,0,1.89-.02,2.35.57,2.3,2.37-.12,4.36-.04,8.72-.04,13.08Z"/>
  <path class="cls-1" d="m77.21,246.81c0-4.26.08-8.52-.04-12.78-.05-1.8.25-2.59,2.36-2.56,8.82.14,17.64.11,26.46.04,1.63-.01,2.24.35,2.22,2.11-.09,8.92-.06,17.84-.02,26.76,0,1.42-.22,2.14-1.92,2.13-9.02-.08-18.04-.06-27.05,0-1.56.01-2.04-.45-2.01-2.02.1-4.56.03-9.12.03-13.67h-.02Z"/>
  <path class="cls-1" d="m247.05,154.29c4.46,0,8.92.05,13.38-.03,1.5-.03,2.08.34,2.07,1.97-.07,9.02-.07,18.04,0,27.06.01,1.59-.49,1.99-2.02,1.98-9.02-.07-18.04-.07-27.06,0-1.67.01-1.93-.63-1.92-2.09.05-8.92.07-17.84-.01-26.76-.01-1.7.5-2.21,2.19-2.17,4.46.1,8.92.04,13.38.04Z"/>
  <path class="cls-1" d="m324.1,339.5c-4.36,0-8.73-.07-13.09.04-1.73.04-2.41-.29-2.38-2.24.11-8.72.1-17.45,0-26.17-.02-1.92.46-2.54,2.46-2.52,8.72.11,17.45.08,26.17.01,1.72-.01,2.43.31,2.41,2.26-.11,8.82-.09,17.65,0,26.47.01,1.7-.49,2.22-2.18,2.18-4.46-.11-8.92-.04-13.38-.03Z"/>
  <path class="cls-1" d="m116.63,77.38c9.52,0,19.03,0,28.55,0,1.28,1.37-.3,3.57,1.41,4.81.06,8.08.1,16.17.21,24.25.02,1.37-.59,1.66-1.78,1.65-9.47-.08-18.93-.12-28.4-.18-.03-.71.12-1.47-.66-1.92-.24-9.32-.24-18.63,0-27.95.22-.22.44-.44.66-.66Z"/>
  <path class="cls-1" d="m146.6,273.78c.32,1.41.3,2.82.01,4.23-1.17.59-1.16,1.18,0,1.78.06,6.51.1,13.03.21,19.54.02,1.29-.46,1.73-1.73,1.72-7.9-.09-15.79-.14-23.69-.2-1.2-1.34-2.41-1.19-3.61,0-.37,0-.74,0-1.11,0-.23-.28-.46-.55-.7-.82,0-9.71,0-19.43,0-29.14.22-.22.44-.44.66-.66,9.72,0,19.44,0,29.16-.01.27,1.19-.66,2.66.81,3.58Z"/>
  <path class="cls-3" d="m54.01,108.06c-4.46,0-8.92-.05-13.38.03-1.52.03-2.05-.39-2.03-1.98.07-9.02.06-18.04,0-27.06,0-1.46.49-1.83,1.88-1.82,9.02.05,18.04.05,27.06,0,1.49,0,2.08.34,2.07,1.96-.07,8.92-.08,17.84,0,26.76.02,1.75-.57,2.17-2.21,2.14-4.46-.1-8.92-.03-13.38-.03Z"/>
  <path class="cls-3" d="m92.53,77.26c4.36,0,8.72.06,13.08-.03,1.79-.04,2.64.23,2.61,2.38-.13,8.72-.1,17.44-.01,26.16.02,1.84-.52,2.36-2.35,2.35-8.82-.09-17.64-.11-26.46,0-1.97.02-2.24-.7-2.22-2.41.08-8.72.08-17.44,0-26.16-.02-1.79.39-2.4,2.28-2.33,4.35.15,8.72.05,13.08.05Z"/>
  <path class="cls-3" d="m208.31,77.26c4.46,0,8.92.07,13.38-.03,1.66-.04,2.18.43,2.17,2.13-.08,8.92-.07,17.84,0,26.76.01,1.59-.5,1.98-2.02,1.97-8.92-.07-17.84-.07-26.76,0-1.63.01-2.24-.39-2.22-2.14.08-8.92.08-17.84,0-26.76-.01-1.64.6-1.98,2.08-1.95,4.46.07,8.92.03,13.38.03Z"/>
  <path class="cls-3" d="m285.35,108.07c-4.36,0-8.72-.06-13.08.03-1.64.04-2.21-.39-2.19-2.13.09-8.92.08-17.84,0-26.76-.01-1.57.46-2,2.01-1.99,8.92.07,17.84.06,26.76,0,1.59-.01,2.26.3,2.24,2.1-.09,8.92-.08,17.84-.01,26.76.01,1.6-.54,2.03-2.06,2-4.56-.07-9.12-.03-13.68-.03h0Z"/>
  <path class="cls-3" d="m416.72,92.62c0,4.36-.07,8.72.03,13.08.04,1.69-.23,2.44-2.21,2.41-8.82-.11-17.64-.09-26.46,0-1.82.02-2.37-.5-2.35-2.34.09-8.72.08-17.44,0-26.16-.02-1.77.41-2.4,2.29-2.38,8.92.09,17.84.08,26.76,0,1.59-.01,2,.5,1.97,2.02-.09,4.46-.03,8.92-.03,13.38Z"/>
  <path class="cls-3" d="m424.36,92.6c0-4.36.05-8.72-.03-13.09-.03-1.52.16-2.32,2.03-2.3,9.02.1,18.04.1,27.06.03,1.7-.01,1.89.64,1.88,2.08-.05,8.82-.07,17.65.03,26.47.02,1.83-.48,2.34-2.31,2.32-8.72-.1-17.45-.12-26.17,0-2.22.03-2.6-.77-2.54-2.73.13-4.26.04-8.52.04-12.79Z"/>
  <path class="cls-3" d="m246.67,339.5c-4.26,0-8.52-.06-12.78.04-1.69.04-2.44-.25-2.41-2.23.12-8.72.1-17.44,0-26.16-.02-1.95.58-2.52,2.52-2.5,8.72.09,17.44.08,26.16,0,1.77-.02,2.38.4,2.35,2.28-.1,8.82-.09,17.64-.01,26.46.01,1.69-.48,2.19-2.16,2.15-4.56-.11-9.12-.04-13.67-.03Z"/>
  <path class="cls-3" d="m270.12,323.83c0-4.26.07-8.52-.04-12.78-.04-1.69.24-2.44,2.21-2.42,8.82.11,17.63.1,26.45.02,1.8-.02,2.37.47,2.36,2.33-.09,8.72-.07,17.44,0,26.15.02,1.76-.44,2.42-2.31,2.4-8.92-.08-17.83-.07-26.75,0-1.61.01-1.99-.52-1.96-2.04.09-4.56.03-9.11.03-13.67Z"/>
  <path class="cls-3" d="m478.49,77.26c4.36,0,8.73.06,13.09-.03,1.68-.04,2.45.22,2.42,2.21-.12,8.82-.09,17.65-.02,26.47.01,1.64-.4,2.22-2.13,2.2-8.92-.08-17.85-.09-26.77,0-1.76.02-2.11-.62-2.1-2.23.07-8.72.08-17.45,0-26.17-.02-1.88.41-2.58,2.43-2.5,4.36.16,8.72.05,13.08.05h0Z"/>
  <path class="cls-3" d="m262.46,92.62c0,4.36-.08,8.73.03,13.08.04,1.72-.28,2.44-2.23,2.41-8.82-.1-17.65-.09-26.47,0-1.84.02-2.33-.54-2.31-2.35.09-8.72.09-17.45,0-26.17-.02-1.76.34-2.4,2.26-2.38,8.92.1,17.84.08,26.76,0,1.58-.01,2.02.48,1.99,2.02-.09,4.46-.03,8.92-.04,13.38Z"/>
  <path class="cls-1" d="m339.45,88.75c.06,5.91.09,11.82.21,17.73.03,1.4-.63,1.64-1.8,1.63-9.46-.08-18.92-.13-28.38-.19-.22-.24-.45-.48-.67-.72,0-9.72,0-19.44,0-29.15.52-.01,1-.11,1.25-.65,9.32,0,18.64,0,27.96,0,1.2,2.75.32,5.66.62,8.47.11.99-.56,2.24.82,2.88Z"/>
  <path class="cls-3" d="m493.78,154.8c.02,9.93.03,19.86.05,29.79-.15.17-.31.34-.46.51-9.92,0-19.85,0-29.77,0l-.47-.52c-.16-9.93-.26-19.86.05-29.78.18-.06.32-.18.41-.36,9.94,0,19.87,0,29.81,0,.08.18.21.3.39.37Zm-4.65,1.14c-1.44-.9-2.83-.5-4.12-.51-6.55-.05-6.56-.02-3.42,5.58.34.6.5,1.76,1.61,1.13.75-.43,1.57-1.13.72-2.13-1.1-1.28.17-1.8.63-2.7,1.04-2.03,3.12-.11,4.58-1.37Z"/>
  <path class="cls-1" d="m415.99,146.55c-8.13,0-16.26,0-24.39,0-.2-.43-.4-.45-.61,0-.67.04-1.36.01-2.02.13-2.69.48-3.84-.46-3.06-3.24.16-.08.32-.17.48-.25-.16-.09-.32-.18-.48-.28,0-8.7,0-17.41,0-26.11.32-.29.63-.59.95-.88,8.1-.28,16.2-.28,24.31,0,.58.94,1.17,1.17,1.79.03,3.7-.37,3.74-.37,3.73,3.23-.01,8.71-.07,17.42-.1,26.12-.49.28-.59.75-.6,1.26Z"/>
  <path class="cls-3" d="m362.84,77.26c4.45,0,8.91.06,13.36-.03,1.55-.03,2.04.46,2.03,2.01-.06,8.91-.07,17.82,0,26.72.02,1.75-.63,2.14-2.24,2.13-8.81-.06-17.62-.08-26.43.01-1.84.02-2.33-.54-2.31-2.35.09-8.71.1-17.42,0-26.13-.03-2.02.66-2.46,2.53-2.41,4.35.13,8.71.04,13.06.04Z"/>
  <path class="cls-1" d="m339.43,297.65c.76,2.67-.16,3.85-2.99,3.42-1.05-.16-2.12-.17-3.18-.25-1.2-1.21-2.39-1.27-3.57.05-1.59.29-3.18.29-4.76,0-.59-1.18-1.19-1.17-1.78,0-3.75.29-7.5.26-11.25-.01-.86-1.06-2.69-.98-3.08-2.6,0-9.12,0-18.24,0-27.36.22-.22.44-.44.65-.67,9.72,0,19.44,0,29.15,0,0,8.18-.02,16.36.03,24.54,0,.99-.56,2.23.78,2.9Z"/>
  <path class="cls-3" d="m385.94,30.42c-.06-9.5-.09-19-.19-28.5-.01-1.39.4-1.89,1.85-1.88,9.11.05,18.22.04,27.34,0,1.17,0,1.82.17,1.81,1.59-.1,9.6-.13,19.2-.18,28.8-.33.1-.66.19-.99.29-1.29.49-2.62.28-3.93.15.06-1.34,2.73-2.02,1.39-3.4-1.36-1.4-1.94.95-2.99,1.41-.46.2-.93.49-1.36.09-.51-.48-.07-.9.24-1.26.39-.45.83-.85,1.24-1.28.62-.64,1.35-1.29.81-2.3-.5-.93-1.3-1.39-2.41-1.44-2.1-.09-4.44,1.64-4.4,3.84.05,2.34-.87,3-2.97,2.72-1.16-.15-1.95.25-1.87,1.6-1.19,0-2.38,0-3.57,0-.09-.5.18-1.31-.6-1.31-.77,0-.5.81-.6,1.31-2.58.02-5.17.03-7.75.05-.29-.16-.58-.32-.87-.47Z"/>
  <path class="cls-3" d="m20.82,107.89c-6.42.06-12.85.1-19.27.18-1.17.01-1.53-.47-1.52-1.6.03-9.2.04-18.4,0-27.61,0-1.38.59-1.64,1.78-1.63,9.2.03,18.41.04,27.61,0,1.42,0,1.59.62,1.58,1.79-.03,9.1-.03,18.21,0,27.31,0,1.22-.27,1.85-1.62,1.75-1.67-.12-3.35-.14-5.02-.2.52-.83,1.37-.71,2.14-.67,1.67.08,2.8-.57,3.46-2.28-3.11-.31-6.9.41-6.29-4.64.02-.15-.38-.5-.59-.5-.57-.02-.91.44-.97.93-.14,1.21-.19,2.43-.3,4.09-1.14-1.09-1.88-1.87-2.7-2.56-.77-.65-1.49-2.19-2.62-1.26-1.23,1.02.14,2.09.66,3.09.85,1.65,2.48,2.51,3.68,3.8Z"/>
  <path class="cls-3" d="m221.99,223.71c-2.98,0-5.96-.02-8.95-.03,0-.74,0-1.47,0-2.21,2.66,1.66,5.77,1.7,7.32.09.54-.56,1.33-1.2.74-2-.66-.9-1.38-.2-2,.31-.59.49-1.31,1.44-1.97.72-.88-.95.52-1.39.93-2.06.43-.69,1.77-1.1,1.1-2.11-.5-.76-1.41-1.32-2.46-1.5-2.54-.44-5.7,1.82-3.68,6.54-.86-.18-1.71-.47-2.57-.51-1.96-.09-3.83.1-3.97,2.72-.59,0-1.19,0-1.78,0,0-1.06-.18-2.04-1.5-2.12-.32-.02-.91.27-.95.49-.16.91,1.45.58,1.25,1.62-3.38,0-6.75,0-10.13,0-.07-.18-.19-.31-.36-.4-.05-9.49-.07-18.99-.16-28.48-.01-1.38.37-1.9,1.83-1.89,9.5.09,18.99.1,28.49.14.17.15.34.3.5.45,0,9.92,0,19.84,0,29.76-.6.02-1.24-.1-1.69.46Z"/>
  <path class="cls-3" d="m68.32,69.45c-9.7,0-19.4-.01-29.1-.02-.09-.16-.22-.26-.4-.31-.06-9.69-.11-19.37-.21-29.06-.01-1.27.58-1.45,1.63-1.44,9.59.07,19.18.12,28.77.17.15.38.29.75.44,1.13,0,5.16,0,10.33,0,15.49-1.44-.36-1.69-2.14-3.15-2.56-.79-.23-1.51-.6-2.17.13-.65.72-.16,1.31.37,1.77,1.14,1,.79,1.99.3,3.2-1.63,4.08.07,6.57,4.64,6.99,0,1.19.02,2.38.02,3.57-.58.07-1,.33-1.15.94Zm-7.59-.93c1.86.41,3.91-1.4,6.08-.09.5.3.98-.49,1.24-1.04.23-.5.19-.9-.39-1.19-3.07-1.54-6.07-3.25-9.22-4.63-1.51-.66-2.81.26-3.01,1.89-.23,1.88,3.09,5.04,5.29,5.06Z"/>
  <path class="cls-3" d="m179.11,146.5c-.2,0-.39,0-.59,0-.46-1.93-1.04-3.56-3.11-1.15-.62.72-1.45.53-2.22.53-5.05.02-10.11-.05-15.16.04-2.09.03-2.77-.84-2.76-2.85.06-8.02.05-16.05,0-24.07-.01-1.62.48-2.31,2.2-2.3,8.32.06,16.64.05,24.96,0,1.58,0,2.05.66,2.04,2.14-.04,7.73-.01,15.45-.02,23.18,0,.87.15,1.99-1.15,2-1.93.02-2.91,1.49-4.21,2.47Z"/>
  <path class="cls-3" d="m223.18,262.34c-9.47.04-18.94.06-28.41.14-1.37.01-1.95-.35-1.91-1.81.11-4.73.11-9.47.15-14.2,1.27.5,2.75.75,3.04-.9.32-1.79-1.37-1.38-2.44-1.48-.19-.02-.39,0-.58,0,0-1.05,0-2.11,0-3.16,1.48,2.07,3.21,3.64,5.88,2.04,2.8-1.67,3.14-3.29,1.66-6.43,5.66.98,7.1,0,7.13-4.88,4.84-.04,9.67-.04,14.51-.15,1.35-.03,1.66.5,1.65,1.73-.09,9.57-.12,19.15-.18,28.72-.16.13-.32.26-.48.39Z"/>
  <path class="cls-3" d="m231.65,205.4c0-.79-.01-1.58-.02-2.38,2.15,1.01,4.38,2.09,6.63.57,2.07-1.41,2.65-3.52,1.59-5.95,5.87.18,7.12-.67,7-4.59,5.01,0,10.01,0,15.02,0,.16.15.31.29.47.44,0,9.93,0,19.85,0,29.78-.15.14-.31.29-.46.43h-29.77c-.15-.35-.3-.68-.45-1.02,0-4.75,0-9.49.01-14.24,1.41-.04,3.16-.18,3.09-1.86-.08-1.79-1.96-.98-3.09-1.18Z"/>
  <path class="cls-3" d="m155.28,154.4c9.54,0,19.09,0,28.63,0,.38.14.76.27,1.15.41.06,9.6.12,19.21.2,28.81,0,1.05-.18,1.64-1.45,1.62-9.7-.11-19.41-.16-29.11-.22-.04-.17-.12-.3-.26-.4-.17-9.93-.37-19.87.1-29.8.25-.14.49-.28.74-.42Zm10.76,7.71c-.42,1.92.83,3.19,2.25,4.04,1.69,1.02,3.59,1.05,5.1-.57,1.1-1.18,2.96-2.45,1.68-4.19-1.55-2.11-3.6-3.91-5.63-5.61-.8-.67-3.16-.11-2.98.13,1.74,2.29-.94,4.08-.4,6.2Zm-2.39,10.66c0-2.47,1.55-3.71,3.49-2.85,1.36.6,2.21.08,2.66-.96.54-1.24-.84-1.03-1.41-1.33-2.53-1.32-5.12-2.53-7.64-3.86-1.04-.55-1.81-.42-2.66.33-.54.47-1.22.87-.81,1.66,1.57,3.05,3.19,6.08,4.82,9.1.24.45.7.77,1.23.54.62-.26.86-.76.64-1.45-.15-.46-.26-.94-.32-1.17Z"/>
  <path class="cls-3" d="m425.5,193.04c4.96.01,9.93.02,14.89.04.62,2.75,2.85,4.07,4.94,5.49.53.37,1.13.29,1.63-.15.56-.5.44-1,.05-1.55-.3-.43-1.03-.7-.67-1.37,1.62-.86,4.62,1.2,4.77-2.43,1.19,0,2.39,0,3.58-.01.16.15.32.3.47.44,0,9.93,0,19.85,0,29.78-.16.15-.32.29-.47.44-9.93,0-19.86-.01-29.79-.02-.14-.14-.27-.28-.41-.41,0-1.19,0-2.39,0-3.58,2.13.04,3.17-1.48,3.21-3.14.05-1.8-.95-3.41-3.22-3.41v-2.37c1.94.61,2.98,2.52,4.8,3.31,1.32.57,2.47.15,2.98-1.05.62-1.45-.69-1.44-1.63-1.71-1.23-.35-3.12-1.19-2.96-2.06.74-3.93-1.64-2.14-3.17-1.97,0-4.59,0-9.18,0-13.77.33-.15.66-.31,1-.46Zm11.78,9.88c3.15,1.23,5.26.72,6.82-1.56.44-.64.6-1.27.05-1.88-.73-.8-1.12-.16-1.63.37-1.17,1.2-2.48,1.1-3.68.06-1.44-1.24-.51-2.23.42-3.23.62-.66.75-1.45.01-2.09-.88-.77-1.44,0-1.96.57-1.6,1.81-2.18,3.88-1.09,6.5-2.95-.65-5.53-.89-7.02,1.94-1.19,2.27.16,3.98,1.57,5.52,1.41,1.54,3.28,1.47,4.89.56,2.39-1.35,2.96-3.55,1.62-6.77Z"/>
  <path class="cls-3" d="m231.64,416.1c0-1.19.01-2.39.02-3.58,2.96-.02,3.94-2.02,3.93-4.45,0-2.37-1.64-3.38-3.95-3.29,0-.59,0-1.19,0-1.78,1.26-.13,2.26.25,3.18,1.18.82.83,1.79,1.58,2.84,2.09,1.59.77,2.51-.6,2.98-1.65.63-1.41-.73-1.39-1.69-1.64-1.64-.44-3.67-.61-2.91-3.29.22-.79-.44-1.5-1.19-1.2-1.17.46-2.11-.43-3.17-.24,0-3.78-.02-7.55-.02-11.33.15-.33.3-.67.45-1,5.75,0,11.5,0,17.25,0-.07,1.92,1.3,2.79,2.7,3.55.86.46,1.32,2.11,2.67,1.17,1.29-.9-.14-1.94-.11-2.8,1.27-1.14,3.94,1.21,4.26-1.92,1,0,1.99-.01,2.99-.02.15.15.31.29.46.44,0,9.93.02,19.85.03,29.78-.16.16-.33.33-.49.49-9.93,0-19.85,0-29.78-.01-.15-.16-.29-.32-.44-.47Zm13.65-21.34c2.75.69,5.08,1.02,6.79-1.33.41-.57,1.03-1.08.37-1.79-.65-.71-1.49-.72-2.06.03-.96,1.28-1.97,1.64-3.2.48-1.16-1.1-1.04-2.23,0-3.39.41-.46,1.28-1,.35-1.65-.56-.39-1.43-.39-1.95.11-.94.88-1.75,1.9-1.6,3.35.18,1.8.12,3.05-2.45,2.4-1.89-.48-3.52.87-4.36,2.5-.89,1.72-.29,3.47.97,4.94,1.22,1.42,2.47,2.45,4.6,1.75,3.13-1.03,4.19-3.57,2.53-7.39Z"/>
  <path class="cls-3" d="m223.69,318.48c.04,6.44.06,12.88.15,19.32.02,1.27-.34,1.73-1.66,1.73-9.22-.04-18.44-.04-27.66,0-1.34,0-1.65-.6-1.64-1.81.03-9.12.03-18.24-.02-27.37,0-1.35.56-1.67,1.78-1.66,9.12.03,18.24.03,27.37,0,1.13,0,1.52.28,1.65,1.52.22,1.98.2,3.93.03,5.9-3.55-.33-4-1.11-2.23-4.24.5-.89.03-1.27-.46-1.74-.65-.61-1.29-.48-1.75.23-.74,1.15-1.65,2.21-1.47,3.77.2,1.71.07,2.76-2.39,2.21-1.98-.44-3.83.8-4.52,3.01-.79,2.54.71,4.21,2.46,5.58,1.63,1.28,3.14.73,4.82-.42,2.62-1.8.85-4.28,1.28-6.47,1.5.49,2.88.48,4.26.45Zm-20.14,16.57c2.01,2.13,3.11.74,4.4-.43,1.52-1.38,2.05-2.88.96-4.7-.9-1.52-2.15-2.25-3.95-1.49-.63.27-1.3.47-1.96.64-.58.15-1.24.23-1.61-.35-.37-.58-.07-1.15.37-1.59.42-.41.94-.72,1.35-1.13.5-.5.41-1.06-.02-1.58-.37-.44-.8-.45-1.31-.24-1.86.77-3.72,4.24-2.9,5.91,1.14,2.33,3.09,2.33,5.25,1.43.84-.35,2.06-1.18,2.6-.03.47,1.02-.57,1.98-1.43,2.66-.44.34-1,.53-1.74.9Zm1.19-12.5c.03,1.87,5.41,7.21,7.04,7.19,1.47-.02,2.63-1,2.75-2.25.17-1.67-1.32-.72-2.15-.91-1.2-.27-2.61-1.54-2.48-2.27.53-3-1.81-2.3-3.19-2.95-1.69-.79-1.82.3-1.97,1.18Z"/>
  <path class="cls-1" d="m107.99,126.92c.06,6.04.09,12.09.21,18.13.03,1.36-.55,1.66-1.76,1.65-9.22-.03-18.44-.05-27.66.01-1.43,0-1.58-.61-1.58-1.78.03-9.12.05-18.24,0-27.37,0-1.4.38-1.89,1.83-1.88,9.02.05,18.05.07,27.07-.02,1.77-.02,2.29.63,2.12,2.26-.13,1.18-.13,2.37-.19,3.55-1.19.27-1.74,1.02-1.28,2.16.58,1.45.27,2.92.37,4.38-1.86-1.76-3.76-3.49-5.57-5.31-.62-.63-1.95-1.18-1.14-2.37.77-1.13,1.68-.43,2.55.15,1.51.99,2.3-.58,3.37-1.09.69-.33.93-1.1.67-1.8-.54-1.43-1.87-.91-2.84-.84-7.74.56-15.5-.44-23.25.47-2.37.28-3.02,1.04-2.99,3.26.09,7.52.02,15.05.06,22.58,0,.98-.54,2.44,1.01,2.71,1.43.24,3.27.7,4.3-.23.94-.86-.21-2.32-.71-3.45-.08-.18-.19-.35-.33-.49-.82-.83-.61-1.56.17-2.27.73-.67,1.36-1.49,2.55-.89,2.72,1.37,5.47,2.69,8.2,4.05.5.25,1.37.47,1.18,1.14-.82,2.91,1.29,2.18,2.7,2.24,1.58.06,3.17.01,4.75.01,4.16,0,5.26-1.08,5.3-5.38.04-4.16,0-8.32,0-12.48.29-.37.59-.74.88-1.11Zm-17.44,17.78c-.16.25-.43.5-.39.64.06.19.36.42.57.43.4.02.72-.24.56-.67-.07-.18-.43-.24-.75-.4Z"/>
  <path class="cls-1" d="m169.71,339.52c-4.36,0-8.72-.08-13.07.03-1.74.04-2.41-.32-2.39-2.26.11-8.81.09-17.62.02-26.44-.01-1.62.34-2.25,2.11-2.24,9.01.08,18.02.06,27.03,0,1.39,0,1.89.38,1.88,1.83-.06,9.11-.06,18.22,0,27.33.01,1.53-.6,1.77-1.93,1.75-4.55-.07-9.11-.03-13.66-.03Zm-13.8-16.13c0,3.66-.08,7.33.03,10.99.06,1.86.25,4.2,2.67,4.26,7.13.18,14.26.16,21.39-.03,2.62-.07,4.1-1.38,3.97-4.59-.28-6.92-.34-13.88.13-20.78.18-2.65-.38-3.13-2.63-3.1-8,.11-15.99.23-23.99.18-1.6-.01-1.57.75-1.57,1.78,0,3.76,0,7.53,0,11.29Z"/>
  <path class="cls-1" d="m169.89,108.09c-4.46,0-8.91-.05-13.36.02-1.55.03-2.29-.24-2.27-2.07.09-8.91.09-17.82,0-26.73-.02-1.79.64-2.11,2.23-2.1,8.91.06,17.82.08,26.73-.01,1.78-.02,2.1.62,2.08,2.21-.07,8.81-.09,17.62.01,26.43.02,1.88-.56,2.34-2.35,2.29-4.35-.12-8.71-.04-13.07-.04Zm13.98-16.36s.02,0,.04,0c0-4.06-.09-8.13.05-12.19.05-1.26-.28-1.52-1.4-1.52-8.23.03-16.45.03-24.68,0-1.34,0-2,.44-1.99,1.88.03,8.33.01,16.65.01,24.98,0,.98.15,1.58,1.5,1.58,6.81-.03,13.62.08,20.43.16,1.3.02,2.53-.27,3.8-.47,1.78-.28,2.28-1.17,2.26-2.82-.06-3.86-.02-7.73-.02-11.6Z"/>
  <path class="cls-1" d="m131.12,146.68c-4.26,0-8.53-.08-12.79.04-1.81.05-2.59-.27-2.57-2.36.12-8.82.08-17.64,0-26.47-.01-1.64.44-2.23,2.17-2.22,8.92.08,17.84.06,26.77.02,1.44,0,2.13.28,2.12,1.95-.07,9.02-.07,18.04,0,27.06.01,1.57-.47,2.04-2.03,2-4.56-.09-9.12-.03-13.68-.03Zm-.16-.8c3.96,0,7.92-.08,11.88.03,2.16.06,3-.72,2.98-2.93-.08-7.92-.08-15.84,0-23.76.02-1.96-.64-2.57-2.57-2.54-5.84.1-11.68.01-17.53.04-2.86.02-6.3-1.06-7.04,3.41-.04.23-.38.47-.64.59-1.49.66-1.44,1.94-1.44,3.26.02,6.34.13,12.68-.05,19.01-.07,2.5.89,3.01,3.11,2.92,3.76-.14,7.52-.04,11.29-.04Z"/>
  <path class="cls-1" d="m179.11,146.5c1.3-.99,2.28-2.45,4.21-2.47,1.3-.01,1.15-1.13,1.15-2,0-7.73-.02-15.45.02-23.18,0-1.48-.46-2.15-2.04-2.14-8.32.05-16.64.05-24.96,0-1.72-.01-2.21.68-2.2,2.3.05,8.02.06,16.05,0,24.07-.02,2,.67,2.88,2.76,2.85,5.05-.08,10.1-.02,15.16-.04.77,0,1.6.19,2.22-.53,2.06-2.41,2.64-.78,3.11,1.15-7.53.06-15.06.11-22.59.21-1.33.02-1.66-.51-1.65-1.76.04-9.12.05-18.25,0-27.37,0-1.42.44-1.9,1.87-1.89,9.12.05,18.25.04,27.37,0,1.22,0,1.79.29,1.78,1.65-.1,9.51-.14,19.03-.2,28.54-.83.09-1.78-.28-2.4.62-1.19,0-2.38,0-3.57,0Z"/>
  <path class="cls-1" d="m246.85,193.05c.13,3.92-1.13,4.78-7,4.59,1.06,2.43.47,4.54-1.59,5.95-2.24,1.53-4.48.44-6.63-.57.02-3.23-1.16-7.33.38-9.44,1.5-2.05,5.86-.47,8.95-.64,1.95-.1,3.92.05,5.88.1Z"/>
  <path class="cls-1" d="m207.69,231.65c-.02,4.87-1.46,5.86-7.13,4.88,1.49,3.13,1.14,4.75-1.66,6.43-2.66,1.59-4.4.03-5.88-2.04,0-.5,0-1.01.01-1.51,1.51-1.84,1.56-3.68-.02-5.5-.53-1.96.16-2.76,2.18-2.26.78,1.77,2.46,2.58,4.08,4.07-.21-1.64-.36-2.85-.52-4.06,2.98,0,5.95,0,8.93,0Z"/>
  <path class="cls-1" d="m223.69,318.48c-1.38.03-2.77.04-4.26-.45-.43,2.19,1.34,4.68-1.28,6.47-1.68,1.15-3.2,1.7-4.82.42-1.75-1.38-3.24-3.04-2.46-5.58.68-2.21,2.54-3.45,4.52-3.01,2.46.55,2.59-.51,2.39-2.21-.19-1.56.73-2.62,1.47-3.77.45-.71,1.09-.84,1.75-.23.5.47.97.85.46,1.74-1.77,3.13-1.32,3.91,2.23,4.24,0,.79,0,1.59,0,2.38Z"/>
  <path class="cls-1" d="m399.33,30.85c-.08-1.35.71-1.75,1.87-1.6,2.1.27,3.02-.39,2.97-2.72-.04-2.2,2.3-3.94,4.4-3.84,1.11.05,1.91.51,2.41,1.44.55,1.01-.18,1.66-.81,2.3-.41.43-.85.83-1.24,1.28-.31.36-.75.78-.24,1.26.43.4.89.12,1.36-.09,1.04-.46,1.63-2.8,2.99-1.41,1.34,1.38-1.33,2.06-1.39,3.4-4.1,0-8.21-.01-12.31-.02Zm5.63-.46c.16-.08.31-.16.46-.24-.14-.09-.28-.25-.42-.25-.15,0-.3.13-.45.21.14.09.27.19.42.28Z"/>
  <path class="cls-1" d="m69.45,64.95c-4.56-.42-6.26-2.91-4.64-6.99.48-1.21.84-2.2-.3-3.2-.53-.46-1.02-1.05-.37-1.77.66-.74,1.38-.36,2.17-.13,1.45.41,1.71,2.2,3.15,2.56v9.53Z"/>
  <path class="cls-1" d="m20.82,107.89c-1.2-1.29-2.83-2.16-3.68-3.8-.52-1-1.89-2.07-.66-3.09,1.13-.93,1.84.6,2.62,1.26.81.69,1.55,1.46,2.7,2.56.11-1.66.15-2.88.3-4.09.06-.49.4-.94.97-.93.21,0,.61.35.59.5-.61,5.05,3.18,4.33,6.29,4.64-.66,1.71-1.8,2.36-3.46,2.28-.77-.04-1.62-.16-2.14.67-1.18,0-2.35,0-3.53.01Z"/>
  <path class="cls-1" d="m231.66,398.23c1.07-.19,2,.71,3.17.24.75-.3,1.41.41,1.19,1.2-.75,2.68,1.27,2.86,2.91,3.29.96.26,2.32.23,1.69,1.64-.47,1.05-1.38,2.43-2.98,1.65-1.04-.5-2.02-1.26-2.84-2.09-.92-.93-1.92-1.31-3.18-1.18l.03-4.77Z"/>
  <path class="cls-1" d="m451.11,193.06c-.15,3.63-3.15,1.58-4.77,2.43-.37.67.36.94.67,1.37.39.55.51,1.06-.05,1.55-.5.45-1.09.52-1.63.15-2.09-1.43-4.32-2.74-4.94-5.49,3.57,0,7.15-.01,10.72-.02Z"/>
  <path class="cls-3" d="m339.43,297.65c-1.35-.66-.78-1.91-.78-2.9-.05-8.18-.03-16.36-.03-24.54.2.04.4.09.6.13.08.54.16,1.08.24,1.63.27,8.56.35,17.12-.03,25.68Z"/>
  <path class="cls-1" d="m424.51,207.28c1.53-.17,3.91-1.97,3.17,1.97-.16.87,1.72,1.71,2.96,2.06.94.27,2.25.27,1.63,1.71-.52,1.2-1.67,1.63-2.98,1.05-1.81-.79-2.85-2.7-4.79-3.31,0-1.16,0-2.32,0-3.48Z"/>
  <path class="cls-1" d="m258.87,385.9c-.32,3.13-2.99.78-4.26,1.92-.03.87,1.4,1.9.11,2.8-1.35.94-1.82-.71-2.67-1.17-1.4-.76-2.77-1.63-2.7-3.55,3.18,0,6.35,0,9.53,0Z"/>
  <path class="cls-1" d="m231.64,404.77c2.31-.09,3.94.92,3.95,3.29,0,2.43-.97,4.43-3.93,4.45,0-2.58-.01-5.16-.02-7.74Z"/>
  <path class="cls-1" d="m424.49,213.14c2.28,0,3.27,1.61,3.22,3.41-.04,1.66-1.08,3.18-3.21,3.14,0-2.18,0-4.37-.01-6.55Z"/>
  <path class="cls-1" d="m206.49,223.68c.14-2.62,2.01-2.81,3.97-2.72.86.04,1.71.33,2.57.51,0,0,.01.01.01.01,0,.74,0,1.47,0,2.21-2.18,0-4.37,0-6.55,0Z"/>
  <path class="cls-3" d="m339.45,88.75c-1.37-.64-.71-1.89-.82-2.88-.3-2.82.58-5.72-.62-8.47.42-.15.83-.2,1.21.13.03.19.12.34.27.46.19,3.59.3,7.18-.04,10.77Z"/>
  <path class="cls-1" d="m231.65,205.4c1.14.2,3.02-.61,3.09,1.18.07,1.68-1.68,1.82-3.09,1.86,0-1.01,0-2.03,0-3.04Z"/>
  <path class="cls-3" d="m198.76,231.65c.15,1.21.31,2.42.52,4.06-1.61-1.49-3.3-2.3-4.08-4.07,1.19,0,2.37,0,3.56,0Z"/>
  <path class="cls-1" d="m193.03,244.08c.19,0,.39-.01.58,0,1.07.11,2.76-.31,2.44,1.48-.3,1.65-1.78,1.4-3.04.9,0-.8.02-1.59.03-2.39Z"/>
  <path class="cls-3" d="m107.99,126.92c-.29.37-.59.74-.88,1.11h0c-.1-1.46.21-2.94-.37-4.38-.46-1.15.09-1.89,1.28-2.16.3,1.81.25,3.63-.02,5.44Z"/>
  <path class="cls-3" d="m146.6,82.2c-1.72-1.24-.13-3.45-1.41-4.81,1.17-.34,1.65.15,1.59,1.31-.06,1.17-.12,2.33-.17,3.5Z"/>
  <path class="cls-1" d="m203.52,223.68c.2-1.04-1.41-.71-1.25-1.62.04-.22.63-.51.95-.49,1.32.08,1.5,1.05,1.5,2.12-.4,0-.8,0-1.2,0Z"/>
  <path class="cls-3" d="m329.7,300.86c1.17-1.31,2.36-1.25,3.57-.05-1.18.35-2.37.32-3.57.05Z"/>
  <path class="cls-3" d="m117.77,300.84c1.21-1.18,2.41-1.33,3.61,0-1.21.29-2.41.28-3.61,0Z"/>
  <path class="cls-3" d="m193.02,233.91c1.59,1.83,1.53,3.66.02,5.5,0-1.83-.01-3.67-.02-5.5Z"/>
  <path class="cls-3" d="m308.82,298.24c.39,1.62,2.21,1.54,3.08,2.6-2.17.48-3.82.35-3.08-2.6Z"/>
  <path class="cls-1" d="m394.57,30.85c.09-.5-.18-1.31.6-1.31.77,0,.51.81.6,1.31-.4,0-.8,0-1.2,0Z"/>
  <path class="cls-3" d="m146.6,279.79c-1.15-.6-1.16-1.19,0-1.78.24.6.25,1.19,0,1.78Z"/>
  <path class="cls-3" d="m146.6,273.78c-1.47-.92-.54-2.39-.81-3.58,1.96.81.62,2.37.81,3.58Z"/>
  <path class="cls-3" d="m323.15,300.85c.6-1.17,1.19-1.18,1.78,0-.59.24-1.19.24-1.78,0Z"/>
  <path class="cls-1" d="m68.32,69.45c.15-.6.57-.87,1.15-.94.21,1.04-.31,1.18-1.15.94Z"/>
  <path class="cls-3" d="m182.69,146.5c.62-.9,1.57-.53,2.4-.62-.48,1.44-1.55.6-2.4.62Z"/>
  <path class="cls-1" d="m339.46,271.96c-.08-.54-.16-1.08-.24-1.63.76.44.36,1.05.24,1.63Z"/>
  <path class="cls-3" d="m115.97,106c.78.45.63,1.22.66,1.92-1.29-.27-.68-1.2-.66-1.92Z"/>
  <path class="cls-3" d="m412.96,115.93c-.62,1.13-1.21.9-1.79-.03.59.01,1.19.02,1.79.03Z"/>
  <path class="cls-1" d="m221.99,223.71c.46-.56,1.09-.44,1.69-.46-.33,1.03-1.09.43-1.69.46Z"/>
  <path class="cls-3" d="m310.06,77.39c-.25.54-.73.64-1.25.65,0-1,.65-.78,1.25-.65Z"/>
  <path class="cls-1" d="m385.94,30.42c.29.16.58.32.87.47-.41.06-.87.22-.87-.47Z"/>
  <path class="cls-1" d="m425.5,193.04c-.33.15-.66.31-1,.46.06-.75.56-.52,1-.46Z"/>
  <path class="cls-1" d="m185.06,154.81c-.38-.14-.76-.27-1.15-.41.46-.09.98-.33,1.15.41Z"/>
  <path class="cls-3" d="m415.99,146.55c0-.51.11-.98.6-1.26.11.57.36,1.2-.6,1.26Z"/>
  <path class="cls-1" d="m231.64,222.68c.15.34.3.67.45,1.01-.74-.07-.52-.58-.45-1.01Z"/>
  <path class="cls-1" d="m69.45,39.93c-.15-.38-.29-.75-.44-1.13.8.12.53.66.44,1.13Z"/>
  <path class="cls-1" d="m232.09,385.89c-.15.33-.3.67-.45,1-.06-.43-.29-.94.45-1Z"/>
  <path class="cls-1" d="m155.28,154.4c-.25.14-.49.28-.74.42-.05-.67.36-.52.74-.42Z"/>
  <path class="cls-3" d="m309.47,270.21c-.22.22-.44.44-.65.67-.07-.51.13-.75.65-.67Z"/>
  <path class="cls-1" d="m262.33,193.49c-.16-.15-.31-.29-.47-.44.4-.12.56.03.47.44Z"/>
  <path class="cls-1" d="m261.86,223.7c.15-.14.31-.29.46-.43.09.4-.06.55-.46.43Z"/>
  <path class="cls-3" d="m390.99,146.53c.21-.44.41-.42.61,0-.2,0-.41,0-.61,0Z"/>
  <path class="cls-3" d="m386.87,115.9c-.32.29-.63.59-.95.88-.07-.71.31-.94.95-.88Z"/>
  <path class="cls-1" d="m262.32,386.32c-.15-.15-.31-.29-.46-.44.41-.12.54.04.46.44Z"/>
  <path class="cls-1" d="m454.69,223.7c.16-.15.32-.29.47-.44.08.4-.07.56-.47.44Z"/>
  <path class="cls-1" d="m38.82,69.13c.17.05.31.15.4.31-.33.15-.43.01-.4-.31Z"/>
  <path class="cls-3" d="m308.81,107.19c.22.24.45.48.67.72-.56.07-.74-.21-.67-.72Z"/>
  <path class="cls-1" d="m455.17,193.49c-.16-.15-.32-.3-.47-.44.38-.09.54.05.47.44Z"/>
  <path class="cls-1" d="m339.49,77.98c-.15-.12-.23-.27-.27-.46.33.02.49.13.27.46Z"/>
  <path class="cls-1" d="m193.02,223.28c.18.08.3.21.36.4-.35.07-.48-.05-.36-.4Z"/>
  <path class="cls-1" d="m463.58,154.44c-.09.17-.22.29-.41.36-.07-.36.05-.48.41-.36Z"/>
  <path class="cls-1" d="m493.78,154.8c-.18-.07-.31-.19-.39-.37.35-.11.47.02.39.37Z"/>
  <path class="cls-3" d="m115.97,300.02c.23.27.46.55.7.82-.6.04-.76-.3-.7-.82Z"/>
  <path class="cls-1" d="m231.64,416.1c.15.16.29.32.44.47-.38.06-.54-.09-.44-.47Z"/>
  <path class="cls-1" d="m261.85,416.59c.16-.16.33-.33.49-.49.08.41-.09.57-.49.49Z"/>
  <path class="cls-1" d="m154.45,184.62c.14.1.22.23.26.4-.29,0-.49-.06-.26-.4Z"/>
  <path class="cls-1" d="m223.18,262.34c.16-.13.32-.26.48-.39.05.39-.1.53-.48.39Z"/>
  <path class="cls-1" d="m463.13,184.58l.47.52c-.42.07-.56-.12-.47-.52Z"/>
  <path class="cls-1" d="m424.5,223.27c.14.14.27.28.41.41-.38.1-.51-.04-.41-.41Z"/>
  <path class="cls-3" d="m116.63,270.21c-.22.22-.44.44-.66.66-.07-.51.15-.74.66-.66Z"/>
  <path class="cls-1" d="m415.57,30.71c.33-.1.66-.19.99-.29-.14.75-.54.63-.99.29Z"/>
  <path class="cls-1" d="m493.37,185.1c.15-.17.31-.34.46-.51.08.39-.04.58-.46.51Z"/>
  <path class="cls-3" d="m385.91,142.89c.16.09.32.18.48.28-.16.08-.32.17-.48.25-.12-.18-.12-.35,0-.53Z"/>
  <path class="cls-1" d="m223.68,193.49c-.17-.15-.34-.3-.5-.45.38-.09.56.04.5.45Z"/>
  <path class="cls-3" d="m116.63,77.38c-.22.22-.44.44-.66.66-.07-.51.14-.74.66-.66Z"/>
  <path class="cls-1" d="m489.13,155.94c-1.47,1.27-3.54-.66-4.58,1.37-.46.9-1.73,1.42-.63,2.7.86,1,.03,1.7-.72,2.13-1.11.64-1.28-.53-1.61-1.13-3.14-5.6-3.13-5.63,3.42-5.58,1.29,0,2.68-.39,4.12.51Z"/>
  <path class="cls-1" d="m213.04,221.47c-2.02-4.72,1.14-6.98,3.68-6.54,1.05.18,1.95.74,2.46,1.5.66,1.01-.67,1.41-1.1,2.11-.41.66-1.81,1.11-.93,2.06.66.71,1.38-.24,1.97-.72.61-.51,1.33-1.21,2-.31.6.81-.2,1.44-.74,2-1.56,1.61-4.67,1.56-7.32-.09,0,0-.01-.01-.01-.01Z"/>
  <path class="cls-1" d="m60.73,68.52c-2.2-.02-5.52-3.17-5.29-5.06.2-1.63,1.5-2.56,3.01-1.89,3.14,1.38,6.14,3.08,9.22,4.63.59.29.63.69.39,1.19-.25.55-.74,1.34-1.24,1.04-2.18-1.31-4.22.5-6.08.09Z"/>
  <path class="cls-1" d="m166.05,162.11c-.54-2.11,2.15-3.91.4-6.2-.18-.24,2.18-.8,2.98-.13,2.03,1.69,4.08,3.49,5.63,5.61,1.28,1.74-.58,3.01-1.68,4.19-1.51,1.63-3.41,1.59-5.1.57-1.41-.85-2.67-2.13-2.25-4.04Z"/>
  <path class="cls-1" d="m163.66,172.77c.06.22.17.7.32,1.17.22.69-.02,1.19-.64,1.45-.53.22-.99-.09-1.23-.54-1.63-3.02-3.25-6.05-4.82-9.1-.41-.8.27-1.19.81-1.66.85-.75,1.62-.88,2.66-.33,2.52,1.34,5.11,2.54,7.64,3.86.57.3,1.95.1,1.41,1.33-.46,1.04-1.3,1.56-2.66.96-1.94-.86-3.49.38-3.49,2.85Z"/>
  <path class="cls-1" d="m437.28,202.92c1.34,3.21.77,5.41-1.62,6.77-1.61.91-3.47.98-4.89-.56-1.42-1.54-2.77-3.25-1.57-5.52,1.48-2.82,4.07-2.58,7.02-1.94-1.09-2.62-.51-4.69,1.09-6.5.51-.58,1.08-1.34,1.96-.57.73.65.6,1.43-.01,2.09-.93,1-1.86,1.99-.42,3.23,1.21,1.04,2.51,1.14,3.68-.06.51-.53.9-1.17,1.63-.37.56.61.39,1.24-.05,1.88-1.56,2.28-3.67,2.78-6.82,1.56Z"/>
  <path class="cls-1" d="m245.29,394.76c1.66,3.82.59,6.36-2.53,7.39-2.13.7-3.39-.33-4.6-1.75-1.26-1.47-1.86-3.22-.97-4.94.84-1.62,2.47-2.97,4.36-2.5,2.57.65,2.63-.61,2.45-2.4-.15-1.45.66-2.46,1.6-3.35.52-.5,1.4-.5,1.95-.11.93.65.06,1.19-.35,1.65-1.03,1.15-1.15,2.29,0,3.39,1.23,1.17,2.24.81,3.2-.48.56-.75,1.4-.74,2.06-.03.66.71.04,1.22-.37,1.79-1.71,2.36-4.04,2.02-6.79,1.33Z"/>
  <path class="cls-1" d="m203.55,335.05c.74-.37,1.31-.55,1.74-.9.86-.68,1.9-1.64,1.43-2.66-.54-1.16-1.76-.32-2.6.03-2.16.9-4.12.9-5.25-1.43-.82-1.67,1.04-5.14,2.9-5.91.52-.21.95-.2,1.31.24.43.51.52,1.08.02,1.58-.41.42-.93.73-1.35,1.13-.44.43-.75,1-.37,1.59.37.58,1.03.5,1.61.35.67-.17,1.33-.37,1.96-.64,1.81-.76,3.05-.03,3.95,1.49,1.08,1.83.56,3.32-.96,4.7-1.28,1.17-2.39,2.56-4.4.43Z"/>
  <path class="cls-1" d="m204.75,322.55c.15-.88.28-1.97,1.97-1.18,1.38.64,3.72-.06,3.19,2.95-.13.73,1.28,2,2.48,2.27.83.19,2.32-.76,2.15.91-.13,1.25-1.28,2.23-2.75,2.25-1.63.02-7.01-5.33-7.04-7.19Z"/>
  <path class="cls-3" d="m107.1,128.03c0,4.16.03,8.32,0,12.48-.04,4.3-1.14,5.38-5.3,5.38-1.58,0-3.17.05-4.75-.01-1.41-.06-3.53.67-2.7-2.24.19-.67-.68-.89-1.18-1.14-2.72-1.37-5.47-2.69-8.2-4.05-1.19-.6-1.82.22-2.55.89-.79.72-.99,1.44-.17,2.27.14.14.25.31.33.49.5,1.13,1.65,2.6.71,3.45-1.03.93-2.87.47-4.3.23-1.55-.26-1.01-1.72-1.01-2.71-.04-7.53.03-15.05-.06-22.58-.03-2.21.63-2.98,2.99-3.26,7.75-.91,15.51.09,23.25-.47.96-.07,2.3-.59,2.84.84.26.7.02,1.47-.67,1.8-1.07.51-1.86,2.09-3.37,1.09-.87-.57-1.78-1.28-2.55-.15-.81,1.19.52,1.74,1.14,2.37,1.81,1.82,3.71,3.55,5.57,5.31,0,0,0,0,0,0Zm-9.52,5.35c-2.32-.51-3.26-2.72-4.92-4.05-.76-.61-1.35-.71-2.03.02-.51.54-.98,1.2-.27,1.77,1.79,1.44.84,2.84.3,4.46-.75,2.27-.18,4.28,2.12,5.51,2.4,1.29,4.26.59,5.96-1.4,1.71-2,1.14-3.49-.63-4.98-.32-.27-.36-.88-.52-1.33.75,0,1.26.44,1.81.89,1.73,1.43,3.36,1.23,5.01-.24,1.83-1.64,2.21-3.67.92-5.54-1.17-1.69-2.59-3.68-5.34-2.55-2.94,1.2-3.56,3.02-2.4,7.44Z"/>
  <path class="cls-3" d="m90.55,144.71c.32.16.68.22.75.4.16.44-.16.69-.56.67-.21-.01-.51-.24-.57-.43-.05-.14.22-.39.39-.64Z"/>
  <path class="cls-3" d="m155.91,323.38c0-3.76,0-7.53,0-11.29,0-1.03-.02-1.79,1.57-1.78,8,.05,15.99-.07,23.99-.18,2.25-.03,2.81.45,2.63,3.1-.47,6.9-.41,13.86-.13,20.78.13,3.21-1.35,4.52-3.97,4.59-7.13.19-14.26.21-21.39.03-2.42-.06-2.62-2.4-2.67-4.26-.11-3.66-.03-7.33-.03-10.99Z"/>
  <path class="cls-3" d="m183.88,91.73c0,3.87-.04,7.73.02,11.6.03,1.65-.48,2.53-2.26,2.82-1.27.2-2.5.49-3.8.47-6.81-.08-13.62-.19-20.43-.16-1.35,0-1.49-.59-1.5-1.58,0-8.33.01-16.65-.01-24.98,0-1.44.65-1.88,1.99-1.88,8.23.03,16.45.02,24.68,0,1.12,0,1.44.25,1.4,1.52-.14,4.06-.05,8.12-.05,12.19-.01,0-.02,0-.04,0Z"/>
  <path class="cls-3" d="m130.96,145.89c-3.76,0-7.53-.1-11.29.04-2.21.08-3.18-.42-3.11-2.92.18-6.33.07-12.67.05-19.01,0-1.32-.05-2.61,1.44-3.26.26-.11.6-.36.64-.59.74-4.47,4.18-3.4,7.04-3.41,5.84-.03,11.69.05,17.53-.04,1.93-.03,2.59.58,2.57,2.54-.09,7.92-.09,15.84,0,23.76.02,2.21-.82,2.99-2.98,2.93-3.96-.11-7.92-.03-11.88-.03Z"/>
  <path class="cls-3" d="m404.96,30.39c-.14-.1-.28-.19-.42-.28.15-.07.31-.21.45-.21.14,0,.28.16.42.25-.15.08-.3.15-.46.24Z"/>
  <path class="cls-1" d="m97.58,133.39c.17.45.2,1.06.52,1.33,1.77,1.5,2.34,2.99.63,4.98-1.71,1.99-3.56,2.69-5.96,1.4-2.29-1.23-2.87-3.25-2.12-5.51.53-1.62,1.49-3.02-.3-4.46-.71-.57-.24-1.23.27-1.77.69-.72,1.28-.62,2.03-.02,1.66,1.33,2.6,3.54,4.92,4.05h0Z"/>
  <path class="cls-1" d="m97.58,133.39c-1.16-4.42-.54-6.24,2.4-7.44,2.75-1.12,4.17.86,5.34,2.55,1.29,1.87.91,3.9-.92,5.54-1.65,1.48-3.28,1.67-5.01.24-.54-.45-1.06-.89-1.81-.89,0,0,0,0,0,0Z"/>
</svg>