<?xml version="1.0" encoding="UTF-8"?>
<svg id="Capa_1" data-name="Capa 1" xmlns="http://www.w3.org/2000/svg" viewBox="0 0 494 416.61">
  <defs>
    <style>
      .cls-1 {
        fill: #b400ff;
        stroke-width: 0px;
      }
    </style>
  </defs>
  <path class="cls-1" d="m223.82,362.82c0-4.56-.06-9.12.03-13.67.03-1.57-.48-2.02-2.03-2.01-8.92.06-17.83.05-26.75-.01-1.62-.01-2.24.44-2.23,2.17.08,8.92.08,17.83-.01,26.75-.02,1.78.62,2.12,2.23,2.1,8.82-.07,17.63-.08,26.45,0,1.77.02,2.41-.36,2.34-2.27-.04-1.09-.06-2.18-.07-3.27-.03-3.27.02-6.54.03-9.81Z"/>
  <path class="cls-1" d="m493.81,169.7c0-4.97-.02-9.94-.03-14.91h0c.04-.17.03-.29-.04-.35-.03-.03-.08-.05-.14-.05-.06,0-.13.01-.22.04-9.94,0-19.87,0-29.81,0-.35-.13-.48,0-.41.36-.31,9.93-.21,19.86-.05,29.79-.09.4.05.58.47.52,9.92,0,19.85,0,29.77,0,.32.05.47-.04.49-.26,0-.07,0-.16-.02-.25,0-4.96-.02-9.92-.03-14.88Z"/>
  <path class="cls-1" d="m339.46,271.96c.02-.07.03-.14.06-.22.13-.43.31-.88-.06-1.24-.06-.06-.14-.12-.23-.17-.1-.02-.2-.04-.3-.06s-.2-.04-.3-.06h0c-9.72,0-19.44,0-29.15,0-.53-.08-.73.16-.65.67v27.36c-.18.74-.21,1.3-.13,1.72.04.21.11.38.21.53.49.72,1.65.65,3,.35,2.81.21,5.62.27,8.44.17.94-.03,1.88-.09,2.81-.16.59.24,1.19.24,1.78,0,1.59.3,3.18.3,4.76,0,.3.07.6.12.89.16.89.11,1.78.06,2.67-.2,1.06.08,2.13.09,3.18.25,2.82.43,3.75-.75,2.99-3.42.28-6.42.3-12.84.19-19.26-.04-2.14-.09-4.28-.16-6.42Z"/>
  <path class="cls-1" d="m310.89,146.74c1.09-.04,2.18-.06,3.27-.07,3.27-.04,6.55.02,9.82.02,4.56,0,9.13-.06,13.69.03,1.57.03,2.02-.47,2-2.03-.07-8.93-.07-17.85,0-26.78.01-1.64-.39-2.25-2.14-2.24-8.93.08-17.85.08-26.78,0-1.77-.02-2.14.6-2.13,2.23.07,8.83.08,17.65,0,26.48-.02,1.76.33,2.43,2.26,2.36Z"/>
  <path class="cls-1" d="m183.28,270.03c-1.11.02-2.23.04-3.35.05-3.35.02-6.69-.01-10.04-.01-4.46,0-8.93.06-13.39-.03-1.58-.03-2.27.29-2.25,2.09.09,8.92.08,17.85,0,26.77-.01,1.7.52,2.18,2.2,2.17,8.92-.07,17.85-.07,26.77,0,1.52.01,2.07-.39,2.06-1.99-.07-9.02-.07-18.05,0-27.07.01-1.59-.48-2.01-2.02-1.97Z"/>
  <path class="cls-1" d="m376.25,270.04c-4.46.09-8.92.03-13.38.03-4.46,0-8.92.1-13.38-.05-1.91-.06-2.29.58-2.27,2.36.09,8.82.08,17.64,0,26.46-.01,1.63.37,2.26,2.13,2.24,8.92-.08,17.84-.08,26.76,0,1.76.02,2.16-.63,2.15-2.25-.06-8.92-.06-17.84,0-26.76.01-1.54-.44-2.07-2.02-2.03Z"/>
  <path class="cls-1" d="m347.24,144.31c-.04,1.67.19,2.46,2.2,2.43,8.92-.12,17.83-.08,26.75-.02,1.51.01,2.09-.35,2.08-1.97-.07-9.02-.06-18.03,0-27.05,0-1.57-.54-2.03-2.07-2.02-8.92.06-17.83.06-26.75,0-1.65-.01-2.25.43-2.21,2.17.03,1.11.05,2.23.05,3.34.03,3.34-.02,6.69-.02,10.03,0,3.27.04,6.54.01,9.81,0,1.09-.02,2.18-.05,3.27Z"/>
  <path class="cls-1" d="m378.23,208.37h0c0-4.26-.09-8.52.04-12.77.06-1.95-.31-2.76-2.53-2.72-8.71.14-17.43.11-26.14.02-1.78-.02-2.39.38-2.37,2.27.1,8.81.11,17.63,0,26.44-.02,1.92.63,2.27,2.38,2.26,8.71-.08,17.43-.12,26.14.02,2.26.04,2.58-.8,2.53-2.74-.12-4.25-.04-8.52-.04-12.77Z"/>
  <path class="cls-1" d="m347.27,12.01c0,1.09,0,2.18,0,3.27s0,2.23,0,3.34c.01,3.35.03,6.69-.04,10.03-.04,1.73.33,2.41,2.26,2.38,8.82-.11,17.64-.1,26.46,0,1.87.02,2.33-.55,2.31-2.34-.08-8.82-.06-17.64,0-26.46.01-1.61-.35-2.24-2.13-2.22-8.92.09-17.84.08-26.76,0-1.71-.02-2.19.51-2.15,2.18.08,3.27.06,6.54.04,9.81Z"/>
  <path class="cls-1" d="m349.44,69.62c2.23-.05,4.46-.06,6.68-.05s4.46.02,6.69.02c2.23,0,4.46-.01,6.69-.02,2.23,0,4.46,0,6.68.05,1.54.03,2.08-.45,2.07-2.01-.05-9.01-.06-18.02,0-27.04.01-1.62-.58-1.98-2.08-1.97-8.91.06-17.83.07-26.74,0-1.64-.01-2.23.38-2.21,2.13.08,8.91.07,17.83,0,26.74-.01,1.71.56,2.19,2.22,2.16Z"/>
  <path class="cls-1" d="m376.42,231.48c-9.11.09-18.23.07-27.34,0-1.47,0-1.84.5-1.84,1.88.05,9.02.05,18.03,0,27.05,0,1.48.34,2.09,1.97,2.08,9.01-.07,18.03-.07,27.05,0,1.61.01,2.02-.56,2-2.06-.07-4.46-.03-8.92-.02-13.37,0-4.46-.02-8.92.01-13.37,0-1.31-.01-2.22-1.83-2.2Z"/>
  <path class="cls-1" d="m349.65,185.27c1.06-.03,2.13-.04,3.19-.05,3.19-.02,6.39.01,9.58.01,3.42,0,6.83-.04,10.25-.02,1.14,0,2.28.03,3.42.05,1.7.04,2.19-.5,2.17-2.17-.08-8.81-.1-17.63,0-26.44.02-2.05-.77-2.42-2.6-2.4-8.71.08-17.43.09-26.14-.02-1.91-.02-2.3.63-2.29,2.37.08,8.81.1,17.63,0,26.44-.03,1.99.74,2.25,2.43,2.21Z"/>
  <path class="cls-1" d="m77.18,28.82c-.01,1.63.37,2.22,2.12,2.21,8.92-.08,17.84-.08,26.76,0,1.74.02,2.16-.56,2.15-2.2-.07-8.82-.08-17.64,0-26.46.02-1.79-.41-2.42-2.3-2.36-1.11.03-2.23.05-3.34.07-3.34.03-6.69-.02-10.04-.02-3.27,0-6.54.06-9.81.02-1.09-.01-2.18-.03-3.27-.07-1.91-.07-2.29.59-2.27,2.36.08,8.82.07,17.64,0,26.46Z"/>
  <path class="cls-1" d="m118.2,31.03c1.06-.03,2.13-.04,3.19-.05,3.2-.03,6.39.02,9.59.02,3.42,0,6.84-.04,10.26-.02,1.14,0,2.28.02,3.42.05,1.71.04,2.18-.51,2.17-2.18-.07-8.82-.08-17.64,0-26.46.02-1.76-.39-2.4-2.29-2.38-8.82.1-17.64.1-26.46,0-1.88-.02-2.31.57-2.29,2.35.09,8.82.11,17.64,0,26.46-.02,1.96.7,2.27,2.41,2.22Z"/>
  <path class="cls-1" d="m154.27,28.87c-.01,1.7.52,2.18,2.2,2.16,8.92-.08,17.84-.06,26.75,0,1.48,0,2.09-.31,2.07-1.95-.07-9.02-.07-18.03,0-27.05.01-1.56-.46-2.04-2.02-2-1.11.02-2.23.04-3.34.04-3.34.02-6.69-.01-10.03-.01-4.46,0-8.92.06-13.38-.03-1.59-.03-2.28.3-2.26,2.09.08,8.92.07,17.84,0,26.75Z"/>
  <path class="cls-1" d="m308.68,15.35h.03c0,4.56.06,9.12-.03,13.67-.03,1.56.45,2.01,2,2,9.02-.07,18.03-.06,27.05-.01,1.37,0,1.94-.33,1.93-1.81-.05-9.12-.06-18.23,0-27.35,0-1.46-.51-1.84-1.9-1.83-9.02.05-18.03.08-27.05-.01-1.82-.02-2.09.7-2.06,2.26.09,4.36.03,8.72.03,13.08Z"/>
  <path class="cls-1" d="m115.8,183.28c-.01,1.57.48,2.02,2.03,1.99,1.09-.02,2.18-.04,3.27-.05,3.27-.02,6.54.01,9.81.01,3.42,0,6.84-.04,10.25-.01,1.14,0,2.28.02,3.42.05,1.61.03,2.27-.31,2.25-2.09-.08-8.91-.07-17.83,0-26.74.01-1.69-.5-2.19-2.19-2.18-8.91.08-17.83.07-26.74.01-1.5,0-2.1.37-2.09,1.98.06,9.01.07,18.03,0,27.04Z"/>
  <path class="cls-1" d="m272.29,301.06c8.91-.06,17.83-.06,26.74,0,1.54.01,2.06-.43,2.05-2.01-.06-9.01-.06-18.03,0-27.04.01-1.62-.59-2-2.07-1.97-4.46.07-8.91.03-13.37.03-3.34,0-6.69.04-10.03.02-1.11,0-2.23-.02-3.34-.05-1.65-.04-2.21.45-2.2,2.14.07,8.91.08,17.83,0,26.74-.02,1.76.6,2.14,2.22,2.13Z"/>
  <path class="cls-1" d="m233.89,301.07c4.26-.1,8.52-.03,12.78-.04,4.56,0,9.11-.07,13.67.03,1.69.04,2.18-.49,2.16-2.19-.09-8.82-.09-17.63-.01-26.45.02-1.76-.37-2.42-2.26-2.4-8.91.09-17.83.07-26.74,0-1.56-.01-2.01.47-2,2.02.07,8.91.09,17.83-.01,26.74-.02,1.95.7,2.3,2.41,2.26Z"/>
  <path class="cls-1" d="m195.29,301.08c8.72-.1,17.44-.11,26.16,0,2.06.03,2.47-.69,2.41-2.56-.13-4.36-.04-8.72-.04-13.08,0-3.27-.05-6.54-.02-9.81.01-1.09.03-2.18.06-3.27.06-1.81-.41-2.36-2.28-2.34-8.82.1-17.64.1-26.46,0-1.87-.02-2.31.6-2.29,2.37.08,8.72.1,17.44,0,26.16-.02,1.93.47,2.54,2.46,2.52Z"/>
  <path class="cls-1" d="m387.79,223.85c4.35-.09,8.71-.03,13.07-.03v-.02c4.65,0,9.31-.04,13.96.02,1.34.02,1.93-.27,1.92-1.78-.05-9.11-.04-18.21.02-27.32,0-1.45-.49-1.83-1.88-1.82-9.11.05-18.21.06-27.32,0-1.51,0-1.81.6-1.8,1.93.04,9.01.05,18.02-.01,27.02-.01,1.58.52,2.03,2.05,2Z"/>
  <path class="cls-1" d="m79.53,69.63c8.82-.09,17.64-.08,26.46,0,1.66.01,2.23-.43,2.22-2.16-.08-8.92-.08-17.84,0-26.76.02-1.79-.64-2.12-2.25-2.11-8.82.06-17.64.08-26.46-.01-1.78-.02-2.41.38-2.35,2.27.15,4.26.05,8.52.05,12.78h0c0,4.56.09,9.12-.04,13.67-.05,1.87.55,2.33,2.36,2.31Z"/>
  <path class="cls-1" d="m146.79,54.17c0-4.46-.02-8.91.01-13.37.01-1.31-.02-2.23-1.83-2.21-9.11.08-18.22.07-27.33,0-1.47,0-1.83.51-1.82,1.88.04,9.01.04,18.02,0,27.04,0,1.48.35,2.11,1.98,2.1,9.01-.07,18.02-.07,27.04,0,1.61.01,2.02-.57,2-2.08-.07-4.46-.03-8.91-.03-13.37Z"/>
  <path class="cls-1" d="m183.28,38.6c-1.11.02-2.23.04-3.34.05-3.34.02-6.69-.01-10.03-.01-4.56,0-9.12.03-13.67-.02-1.32-.02-1.97.26-1.96,1.78.06,9.11.05,18.23,0,27.35,0,1.41.45,1.88,1.88,1.88,9.02-.05,18.03-.05,27.05,0,1.5,0,2.09-.38,2.08-1.98-.06-9.02-.06-18.03.01-27.05.01-1.57-.47-2.02-2.02-1.99Z"/>
  <path class="cls-1" d="m195.3,69.63c8.72-.1,17.43-.11,26.15,0,2.05.03,2.46-.69,2.41-2.56-.13-4.35-.04-8.72-.04-13.07,0-3.27-.05-6.54-.02-9.81,0-1.09.03-2.18.06-3.27.05-1.78-.38-2.37-2.27-2.34-8.82.11-17.63.1-26.45,0-1.89-.02-2.3.61-2.29,2.38.08,8.72.09,17.43-.02,26.15-.02,1.94.49,2.54,2.47,2.51Z"/>
  <path class="cls-1" d="m270.11,53.93h.02c0,4.56.06,9.12-.03,13.67-.03,1.57.46,2.03,2.01,2.02,8.92-.06,17.84-.07,26.76,0,1.64.01,2.24-.4,2.22-2.15-.08-8.92-.06-17.84,0-26.76,0-1.42-.18-2.12-1.91-2.11-9.02.08-18.04.08-27.05-.02-1.83-.02-2.07.72-2.04,2.26.08,4.36.03,8.72.03,13.08Z"/>
  <path class="cls-1" d="m339.67,40.78c.01-1.69-.47-2.2-2.17-2.19-8.91.08-17.83.06-26.75,0-1.43,0-2.12.22-2.11,1.9.07,9.01.08,18.03,0,27.04-.02,1.84.76,2.09,2.3,2.07,4.46-.07,8.91-.03,13.37-.03,4.26,0,8.52-.08,12.78.04,1.84.05,2.62-.31,2.59-2.39-.12-8.81-.09-17.63-.01-26.45Z"/>
  <path class="cls-1" d="m387.78,69.62c9.02-.06,18.03-.07,27.05,0,1.69.01,1.93-.7,1.92-2.13-.05-8.92-.07-17.83.01-26.75.02-1.69-.46-2.19-2.15-2.15-4.46.11-8.92.04-13.37.03-4.46,0-8.92.05-13.37-.03-1.46-.02-2.12.29-2.1,1.95.06,9.01.05,18.03-.02,27.05-.01,1.57.5,2.04,2.04,2.03Z"/>
  <path class="cls-1" d="m426.36,69.62c9.02-.06,18.04-.05,27.05,0,1.37,0,1.92-.35,1.91-1.82-.05-9.12-.06-18.23,0-27.35,0-1.46-.48-1.84-1.87-1.83-9.02.05-18.04.07-27.05-.02-1.8-.02-2.11.66-2.08,2.25.09,4.46.03,8.92.03,13.38,0,4.46.06,8.92-.03,13.38-.03,1.58.49,2.03,2.03,2.02Z"/>
  <path class="cls-1" d="m79.4,185.26c2.23-.04,4.46-.05,6.69-.05s4.46.02,6.69.02c3.27,0,6.54-.05,9.81-.02,1.09,0,2.18.03,3.27.06,1.8.05,2.38-.43,2.36-2.3-.1-8.82-.07-17.64-.01-26.45.01-1.58-.31-2.28-2.11-2.27-8.92.08-17.83.08-26.75,0-1.71-.02-2.17.52-2.16,2.19.07,8.92.08,17.83,0,26.75-.02,1.79.66,2.1,2.23,2.07Z"/>
  <path class="cls-1" d="m40.82,185.26c4.36-.1,8.72-.04,13.08-.04,0,0,0,0,0,.01,4.46,0,8.92-.08,13.38.04,1.8.05,2.36-.43,2.34-2.3-.1-8.82-.08-17.64-.02-26.46.01-1.58-.29-2.28-2.09-2.26-8.92.09-17.84.08-26.76,0-1.71-.02-2.18.51-2.16,2.19.07,8.92.08,17.84,0,26.76-.02,1.8.65,2.09,2.24,2.05Z"/>
  <path class="cls-1" d="m30.98,169.93c0-3.34-.05-6.69-.02-10.03.01-1.11.03-2.23.06-3.34.06-1.87-.54-2.32-2.35-2.31-8.82.09-17.64.08-26.46,0-1.65-.01-2.23.4-2.22,2.14.08,8.92.08,17.84,0,26.76-.02,1.75.59,2.13,2.22,2.11,8.82-.07,17.64-.08,26.46,0,1.76.02,2.42-.34,2.35-2.26-.04-1.09-.06-2.18-.07-3.27-.04-3.27.02-6.54.02-9.81Z"/>
  <path class="cls-1" d="m195.16,146.7c4.36-.06,8.72-.02,13.08-.02h0c4.46-.01,8.92-.07,13.38.02,1.56.03,2.27-.22,2.25-2.05-.09-8.92-.08-17.83,0-26.75.01-1.66-.42-2.2-2.14-2.19-8.92.07-17.83.04-26.75-.02-1.45,0-2.14.26-2.12,1.94.08,9.02.1,18.03,0,27.05-.02,1.89.81,2.05,2.3,2.03Z"/>
  <path class="cls-1" d="m337.29,192.9c-8.71.08-17.42.12-26.13-.02-2.22-.03-2.58.77-2.52,2.72.14,4.15.04,8.31.04,12.47h.02c0,4.55.07,9.11-.04,13.66-.04,1.71.54,2.16,2.19,2.14,8.81-.08,17.62-.09,26.43-.01,1.75.02,2.42-.35,2.39-2.26-.1-8.81-.1-17.62,0-26.43.02-1.91-.64-2.29-2.39-2.27Z"/>
  <path class="cls-1" d="m67.21,192.9c-4.26.1-8.52.03-12.78.03v.02c-4.56,0-9.11.07-13.67-.04-1.66-.04-2.21.38-2.19,2.11.09,8.91.1,17.83.01,26.74-.02,1.8.65,2.09,2.23,2.08,8.82-.06,17.63-.08,26.45,0,1.8.02,2.37-.42,2.35-2.29-.1-8.81-.11-17.63,0-26.45.02-1.97-.71-2.27-2.42-2.23Z"/>
  <path class="cls-1" d="m108.19,194.77c0-1.41-.44-1.87-1.87-1.86-9.11.05-18.21.06-27.32,0-1.48-.01-1.82.53-1.81,1.89.05,9.01.08,18.02-.02,27.02-.02,1.86.77,2.06,2.29,2.03,4.35-.08,8.71-.03,13.07-.03v-.02c4.45,0,8.91-.05,13.36.03,1.52.02,2.34-.17,2.32-2.04-.09-9.01-.07-18.02-.02-27.02Z"/>
  <path class="cls-1" d="m416.73,246.77c0-4.46-.04-8.92.03-13.38.02-1.35-.27-1.92-1.78-1.91-9.12.07-18.24.06-27.35.01-1.42,0-1.89.41-1.88,1.85.05,9.02.05,18.04,0,27.06,0,1.47.31,2.11,1.97,2.09,9.02-.07,18.04-.07,27.06,0,1.61.01,2.01-.55,1.99-2.05-.08-4.56-.03-9.12-.03-13.68Z"/>
  <path class="cls-1" d="m115.83,221.9c-.01,1.63.58,1.96,2.07,1.95,8.91-.06,17.82-.07,26.73,0,1.67.01,2.22-.44,2.21-2.14-.07-8.91-.08-17.82,0-26.73.02-1.81-.7-2.11-2.27-2.08-4.45.08-8.91.03-13.36.03-4.45,0-8.91.06-13.36-.03-1.53-.03-2.05.4-2.03,1.98.07,9.01.09,18.02.02,27.02Z"/>
  <path class="cls-1" d="m195.2,185.27c1.06-.03,2.13-.05,3.19-.05,3.2-.03,6.39.02,9.59.02,4.56,0,9.12-.06,13.68.03,1.63.03,2.21-.37,2.2-2.11-.08-8.92-.08-17.84,0-26.76.02-1.73-.55-2.16-2.2-2.14-8.82.07-17.64.08-26.46,0-1.79-.02-2.39.41-2.37,2.3.1,8.82.1,17.64,0,26.46-.02,1.92.62,2.31,2.37,2.26Z"/>
  <path class="cls-1" d="m272.32,223.85c4.36-.09,8.72-.03,13.07-.02,4.56,0,9.11-.06,13.67.03,1.54.03,2.04-.4,2.03-1.99-.07-9.01-.08-18.03,0-27.04.01-1.67-.67-1.93-2.11-1.92-8.91.05-17.83.07-26.74-.01-1.68-.01-2.18.45-2.17,2.15.08,8.91.09,17.83,0,26.74-.02,1.82.69,2.1,2.25,2.06Z"/>
  <path class="cls-1" d="m339.67,233.87c.04-1.74-.31-2.42-2.25-2.4-8.81.11-17.63.09-26.45,0-1.82-.02-2.35.51-2.33,2.33.09,8.81.07,17.63.01,26.44-.01,1.58.29,2.27,2.09,2.25,8.91-.09,17.83-.09,26.74,0,1.71.02,2.21-.51,2.18-2.18-.02-1.11-.04-2.23-.05-3.34-.02-3.34.01-6.69.02-10.03,0-3.27-.04-6.54-.02-9.81,0-1.09.02-2.18.05-3.27Z"/>
  <path class="cls-1" d="m262.5,349.48c.05-1.8-.43-2.38-2.31-2.35-8.82.1-17.64.08-26.46.02-1.59-.01-2.27.31-2.26,2.1.09,8.92.09,17.84,0,26.76-.01,1.69.47,2.18,2.16,2.16,8.92-.08,17.84-.09,26.76,0,1.77.02,2.13-.61,2.09-2.22-.02-1.11-.04-2.23-.05-3.34-.02-3.34.01-6.69.02-10.03,0-3.27-.05-6.54-.02-9.81,0-1.09.03-2.18.06-3.27Z"/>
  <path class="cls-1" d="m272.03,262.51c9.02-.08,18.04-.08,27.06-.02,1.6.01,2.03-.53,2-2.05-.08-4.46-.03-8.92-.03-13.38h-.02c0-4.46-.07-8.92.04-13.38.04-1.61-.3-2.24-2.08-2.22-8.92.09-17.84.09-26.76.02-1.69-.01-2.17.5-2.15,2.16.08,8.92.08,17.84.04,26.76,0,1.43.23,2.13,1.91,2.11Z"/>
  <path class="cls-1" d="m301.1,349.14c.03-1.59-.52-2.03-2.05-2.02-9.02.06-18.04.06-27.05.02-1.38,0-1.91.36-1.91,1.83.05,9.12.05,18.23,0,27.35,0,1.44.47,1.83,1.87,1.82,9.02-.05,18.04-.08,27.05.01,1.81.02,2.11-.68,2.08-2.26-.09-4.36-.03-8.72-.03-13.08,0-3.42-.03-6.84-.01-10.26,0-1.14.02-2.28.04-3.42Z"/>
  <path class="cls-1" d="m183.11,192.9c-8.91.07-17.82.06-26.73,0-1.46,0-2.13.27-2.12,1.93.07,9.01.07,18.02,0,27.03-.01,1.59.53,2,2.06,1.99,8.91-.06,17.82-.09,26.73.02,1.95.02,2.28-.68,2.24-2.39-.11-4.35-.04-8.71-.04-13.07,0-4.46-.07-8.91.04-13.36.04-1.71-.53-2.16-2.18-2.14Z"/>
  <path class="cls-1" d="m455.34,156.44c.01-1.68-.46-2.2-2.16-2.18-8.92.08-17.84.06-26.76.01-1.47,0-2.11.3-2.09,1.95.07,9.02.08,18.04,0,27.06-.01,1.59.48,2.02,2.02,1.99,4.46-.09,8.92-.03,13.38-.03s8.92-.06,13.38.03c1.57.03,2.26-.26,2.24-2.07-.09-8.92-.08-17.84,0-26.76Z"/>
  <path class="cls-1" d="m262.5,233.67c.01-1.66-.39-2.2-2.12-2.19-8.92.08-17.84.09-26.76,0-1.74-.02-2.17.54-2.12,2.19.05,2.18.06,4.36.06,6.54s-.02,4.36-.02,6.54c0,4.46.08,8.92-.04,13.38-.05,1.79.4,2.39,2.29,2.37,8.82-.1,17.64-.1,26.46,0,1.92.02,2.28-.63,2.26-2.38-.08-8.82-.08-17.64,0-26.46Z"/>
  <path class="cls-1" d="m416.76,156.45c.01-1.66-.44-2.21-2.16-2.2-8.92.08-17.84.06-26.75,0-1.47,0-2.13.33-2.12,1.96.06,9.02.07,18.03,0,27.05-.01,1.58.5,2.03,2.04,2,2.23-.04,4.46-.05,6.69-.05s4.46.02,6.69.02,4.46-.01,6.69-.02c2.23,0,4.46,0,6.69.05,1.56.03,2.26-.25,2.24-2.06-.09-8.92-.08-17.84,0-26.75Z"/>
  <path class="cls-1" d="m1.99,146.7c9.02-.07,18.04-.07,27.05,0,1.6.01,2-.51,1.97-2.03-.09-4.46-.03-8.92-.03-13.38s-.04-9.12.02-13.67c.02-1.36-.31-1.95-1.8-1.94-9.12.05-18.23.04-27.35,0-1.45,0-1.85.51-1.84,1.91.05,9.02.06,18.04,0,27.05,0,1.51.38,2.07,1.98,2.06Z"/>
  <path class="cls-1" d="m38.59,144.38c-.05,1.81.43,2.35,2.29,2.33,8.82-.1,17.64-.1,26.45,0,1.88.02,2.3-.57,2.29-2.36-.09-8.72-.1-17.44,0-26.15.02-1.93-.47-2.55-2.45-2.53-8.72.1-17.44.1-26.15,0-2.03-.02-2.48.67-2.42,2.56.03,1.06.05,2.13.06,3.19.03,3.19-.02,6.39-.02,9.59,0,3.34.05,6.69.02,10.03-.01,1.11-.03,2.23-.06,3.34Z"/>
  <path class="cls-1" d="m337.29,154.25c-8.82.08-17.64.07-26.46,0-1.69-.01-2.22.48-2.18,2.18.03,1.11.04,2.23.05,3.34.02,3.34-.01,6.69-.01,10.03,0,4.36.06,8.72-.03,13.08-.04,1.68.23,2.42,2.21,2.4,8.82-.12,17.64-.1,26.46,0,1.79.02,2.38-.41,2.36-2.29-.1-8.82-.1-17.64,0-26.46.02-1.91-.64-2.29-2.39-2.28Z"/>
  <path class="cls-1" d="m260.36,115.69c-8.92.07-17.83.07-26.75,0-1.76-.02-2.15.63-2.12,2.25.1,4.46.03,8.92.03,13.37s.06,8.92-.03,13.37c-.03,1.55.42,2.04,2,2.02,9.02-.07,18.03-.07,27.05,0,1.61.01,1.97-.55,1.96-2.06-.06-8.92-.07-17.83,0-26.75.01-1.66-.41-2.23-2.14-2.21Z"/>
  <path class="cls-1" d="m270.11,131.01c0,4.56.06,9.12-.03,13.67-.03,1.53.38,2.04,1.98,2.03,9.02-.07,18.03-.06,27.05,0,1.6.01,1.99-.54,1.98-2.06-.06-8.92-.09-17.84.01-26.75.02-2-.78-2.23-2.46-2.22-8.72.07-17.44.1-26.16-.01-2.03-.02-2.48.66-2.42,2.55.03,1.06.05,2.13.06,3.19.03,3.19-.02,6.39-.02,9.59Z"/>
  <path class="cls-1" d="m426.67,146.71c8.82-.09,17.64-.07,26.45,0,1.6.01,2.24-.3,2.22-2.08-.09-8.92-.09-17.83,0-26.75.02-1.71-.51-2.2-2.18-2.18-8.92.07-17.84.08-26.75,0-1.85-.02-2.09.75-2.06,2.29.08,4.36.03,8.72.02,13.08,0,4.46.1,8.92-.05,13.37-.06,1.88.56,2.31,2.35,2.29Z"/>
  <path class="cls-1" d="m492.16,115.69c-9.12.05-18.23.05-27.35,0-1.45,0-1.84.51-1.83,1.91.05,9.02.08,18.04-.02,27.05-.02,1.84.73,2.07,2.27,2.05,4.36-.08,8.72-.03,13.08-.03v-.03c4.56,0,9.12-.02,13.68.02,1.23.01,1.99-.04,1.98-1.69-.08-9.12-.05-18.23,0-27.35,0-1.37-.33-1.94-1.81-1.94Z"/>
  <path class="cls-1" d="m156.32,262.49c4.36-.09,8.72-.03,13.08-.03,4.56,0,9.12-.03,13.67.02,1.32.01,2.23-.02,2.21-1.82-.08-9.12-.06-18.23,0-27.35,0-1.46-.5-1.82-1.88-1.81-9.02.05-18.03.05-27.05,0-1.47,0-2.1.3-2.09,1.95.07,9.02.07,18.03,0,27.05-.01,1.58.51,2.03,2.05,2Z"/>
  <path class="cls-1" d="m117.77,262.5c9.01-.07,18.03-.07,27.04,0,1.6.01,2.02-.53,1.99-2.06-.09-4.46-.03-8.92-.02-13.37,0-4.46-.02-8.92.01-13.37.01-1.31,0-2.22-1.82-2.21-9.11.08-18.23.07-27.34,0-1.46,0-1.83.49-1.83,1.88.05,9.01.04,18.03,0,27.04,0,1.46.33,2.1,1.97,2.09Z"/>
  <path class="cls-1" d="m301.09,156.61c.05-1.79-.41-2.39-2.3-2.37-8.82.1-17.64.1-26.46,0-1.93-.02-2.27.66-2.26,2.39.08,8.82.08,17.64,0,26.46-.01,1.66.42,2.19,2.13,2.17,8.92-.08,17.84-.09,26.76,0,1.75.02,2.16-.56,2.12-2.2-.03-1.11-.04-2.23-.05-3.34-.02-3.34.01-6.69.01-10.03,0-3.27-.05-6.54-.02-9.81,0-1.09.03-2.18.06-3.27Z"/>
  <path class="cls-1" d="m105.99,231.51c-8.82.07-17.64.1-26.46-.04-2.11-.03-2.4.76-2.36,2.56.11,4.26.04,8.52.04,12.78h.02c0,4.56.06,9.12-.03,13.67-.03,1.57.45,2.03,2.01,2.02,9.02-.07,18.04-.08,27.05,0,1.7.01,1.93-.71,1.92-2.13-.04-8.92-.06-17.84.02-26.76.02-1.76-.59-2.12-2.22-2.11Z"/>
  <path class="cls-1" d="m260.43,154.26c-4.46.08-8.92.03-13.38.03s-8.92.07-13.38-.04c-1.68-.04-2.2.47-2.19,2.17.08,8.92.07,17.84.01,26.76,0,1.46.25,2.1,1.92,2.09,9.02-.08,18.04-.07,27.06,0,1.53.01,2.04-.39,2.02-1.98-.07-9.02-.07-18.04,0-27.06.01-1.63-.57-2-2.07-1.97Z"/>
  <path class="cls-1" d="m337.27,308.63c-8.72.07-17.45.1-26.17-.01-2-.02-2.48.6-2.46,2.52.1,8.72.11,17.45,0,26.17-.03,1.95.66,2.28,2.38,2.24,4.36-.11,8.72-.04,13.09-.04,3.35,0,6.69-.04,10.04-.02,1.12,0,2.23.02,3.34.05,1.7.04,2.2-.48,2.18-2.18-.08-8.82-.1-17.65,0-26.47.02-1.95-.69-2.28-2.41-2.26Z"/>
  <path class="cls-1" d="m40.63,108.1c4.46-.09,8.92-.03,13.38-.03,4.46,0,8.92-.07,13.38.03,1.64.04,2.23-.39,2.21-2.14-.08-8.92-.08-17.84,0-26.76.01-1.63-.58-1.97-2.07-1.96-9.02.06-18.04.05-27.06,0-1.39,0-1.89.36-1.88,1.82.06,9.02.07,18.04,0,27.06-.01,1.59.51,2.01,2.03,1.98Z"/>
  <path class="cls-1" d="m105.61,77.22c-1.09.02-2.18.04-3.27.05-3.27.02-6.54-.01-9.81-.01-3.27,0-6.54.06-9.81.02-1.09-.01-2.18-.03-3.27-.07-1.89-.06-2.3.55-2.28,2.33.09,8.72.08,17.44,0,26.16-.01,1.7.26,2.43,2.22,2.41,8.82-.11,17.64-.09,26.46,0,1.82.02,2.37-.51,2.35-2.35-.09-8.72-.12-17.44.01-26.16.03-2.15-.83-2.42-2.61-2.38Z"/>
  <path class="cls-1" d="m195.07,108.09c8.92-.06,17.84-.06,26.76,0,1.53.01,2.04-.38,2.02-1.97-.07-8.92-.08-17.84,0-26.76.02-1.71-.5-2.17-2.17-2.13-4.46.11-8.92.04-13.38.03-4.46,0-8.92.05-13.38-.03-1.47-.02-2.09.31-2.08,1.95.08,8.92.08,17.84,0,26.76-.02,1.75.6,2.16,2.22,2.14Z"/>
  <path class="cls-1" d="m272.27,108.1c4.36-.1,8.72-.03,13.08-.03h0c4.56-.01,9.12-.06,13.68.01,1.51.02,2.07-.41,2.06-2-.07-8.92-.08-17.84.01-26.76.02-1.8-.66-2.11-2.24-2.1-8.92.06-17.84.07-26.76,0-1.55-.01-2.02.42-2.01,1.99.07,8.92.08,17.84,0,26.76-.02,1.74.56,2.17,2.19,2.13Z"/>
  <path class="cls-1" d="m388.08,108.1c8.82-.09,17.64-.11,26.46,0,1.98.03,2.25-.72,2.21-2.41-.08-3.27-.06-6.54-.04-9.81,0-1.09,0-2.18,0-3.27,0-2.23-.01-4.46-.02-6.69,0-2.23,0-4.46.05-6.69.03-1.52-.38-2.03-1.97-2.02-8.92.07-17.84.09-26.76,0-1.88-.02-2.31.62-2.29,2.38.08,8.72.09,17.44,0,26.16-.02,1.84.54,2.36,2.35,2.34Z"/>
  <path class="cls-1" d="m426.86,108.11c8.72-.13,17.45-.1,26.17,0,1.83.02,2.33-.49,2.31-2.32-.1-8.82-.08-17.65-.03-26.47,0-1.43-.18-2.09-1.88-2.08-9.02.08-18.04.08-27.06-.03-1.87-.02-2.06.78-2.03,2.3.07,4.36.03,8.72.02,13.09,0,3.2.05,6.4.02,9.59-.01,1.07-.03,2.13-.06,3.2-.06,1.96.32,2.76,2.54,2.73Z"/>
  <path class="cls-1" d="m260.16,308.65c-8.72.09-17.44.09-26.16,0-1.93-.02-2.54.55-2.52,2.5.09,8.72.11,17.44,0,26.16-.03,1.98.72,2.26,2.41,2.23,1.06-.02,2.13-.04,3.19-.05,3.2-.02,6.39.01,9.59.01,3.42,0,6.84-.04,10.26-.02,1.14,0,2.28.02,3.42.05,1.68.04,2.17-.46,2.16-2.15-.08-8.82-.09-17.64.01-26.46.02-1.88-.58-2.3-2.35-2.28Z"/>
  <path class="cls-1" d="m301.1,310.99c.02-1.86-.56-2.35-2.36-2.33-8.82.08-17.63.09-26.45-.02-1.97-.03-2.25.72-2.21,2.42.11,4.26.03,8.52.04,12.78,0,4.56.06,9.12-.03,13.67-.03,1.52.35,2.05,1.96,2.04,8.92-.08,17.83-.09,26.75,0,1.87.02,2.33-.64,2.31-2.4-.08-8.72-.1-17.44,0-26.15Z"/>
  <path class="cls-1" d="m494,79.43c.03-1.99-.74-2.25-2.42-2.21-4.36.1-8.72.03-13.09.03h0c-4.36-.01-8.73.1-13.08-.06-2.02-.07-2.45.63-2.43,2.5.09,8.72.07,17.45,0,26.17-.01,1.61.34,2.24,2.1,2.23,8.92-.08,17.85-.08,26.77,0,1.74.02,2.15-.56,2.13-2.2-.07-8.82-.1-17.65.02-26.47Z"/>
  <path class="cls-1" d="m233.8,108.11c8.82-.09,17.65-.1,26.47,0,1.95.02,2.28-.69,2.23-2.41-.03-1.09-.04-2.18-.05-3.27-.03-3.27.02-6.54.02-9.81,0-3.35-.03-6.69-.01-10.04,0-1.12.02-2.23.04-3.34.03-1.55-.41-2.04-1.99-2.02-8.92.07-17.84.1-26.76,0-1.92-.02-2.28.62-2.26,2.38.09,8.72.09,17.45,0,26.17-.02,1.82.47,2.37,2.31,2.35Z"/>
  <path class="cls-1" d="m388.98,146.66c.66-.12,1.34-.09,2.02-.13.2,0,.41,0,.61,0h0s0,0,0,0c8.13,0,16.26,0,24.39,0,.96-.06.71-.69.6-1.26.04-8.71.09-17.42.1-26.12,0-3.61-.03-3.61-3.73-3.23-.6-.01-1.19-.02-1.79-.03-8.1-.27-16.2-.28-24.31,0-.64-.06-1.02.17-.95.88,0,8.7,0,17.41,0,26.11-.06.09-.09.18-.09.26s.03.18.09.26c-.19.69-.27,1.27-.23,1.75.12,1.41,1.27,1.85,3.29,1.49Z"/>
  <path class="cls-1" d="m376.2,77.22c-4.45.09-8.91.03-13.36.03-3.27,0-6.53.05-9.8.02-1.09,0-2.18-.03-3.26-.06-1.87-.05-2.55.39-2.53,2.41.11,8.71.1,17.42,0,26.13-.02,1.81.46,2.37,2.31,2.35,8.81-.09,17.62-.07,26.43-.01,1.61.01,2.26-.38,2.24-2.13-.08-8.91-.07-17.82,0-26.72.01-1.55-.47-2.04-2.03-2.01Z"/>
  <path class="cls-1" d="m.03,106.48c0,1.13.36,1.61,1.52,1.6,6.42-.08,12.85-.13,19.27-.18h3.53c1.68.05,3.35.06,5.02.19,1.36.1,1.63-.53,1.62-1.75-.04-9.1-.04-18.21,0-27.31,0-1.17-.17-1.8-1.58-1.79-9.2.05-18.4.04-27.61,0-1.19,0-1.79.26-1.78,1.63.05,9.2.04,18.4,0,27.61Z"/>
  <path class="cls-1" d="m222.19,231.5c-4.83.11-9.67.11-14.51.15-2.98,0-5.95,0-8.93,0-1.19,0-2.37,0-3.56,0-2.03-.5-2.71.3-2.18,2.26,0,1.83.01,3.67.02,5.5,0,.5,0,1-.01,1.51,0,1.05,0,2.11,0,3.16,0,.8-.02,1.59-.03,2.39-.04,4.73-.04,9.47-.15,14.2-.03,1.47.55,1.83,1.91,1.81,9.47-.08,18.94-.1,28.41-.14.38.14.54,0,.48-.39.05-9.57.09-19.15.18-28.72.01-1.23-.3-1.76-1.65-1.73Z"/>
  <path class="cls-1" d="m231.65,205.4c0,1.01,0,2.03,0,3.04,0,4.75,0,9.49-.01,14.24-.06.43-.29.94.45,1.01,9.92,0,19.85,0,29.77.01.4.12.55-.03.46-.43,0-9.93,0-19.85,0-29.78.09-.41-.06-.56-.47-.44h-15.02c-1.96-.04-3.93-.2-5.88-.1-3.1.16-7.45-1.42-8.95.64-1.54,2.11-.37,6.21-.38,9.44,0,.79.01,1.58.02,2.38Z"/>
  <path class="cls-1" d="m154.45,184.62c-.23.34-.03.4.26.4,9.7.07,19.41.12,29.11.22,1.27.01,1.46-.57,1.45-1.62-.08-9.6-.14-19.21-.2-28.81-.17-.74-.68-.5-1.15-.41-9.54,0-19.09,0-28.63,0-.38-.09-.8-.24-.74.42-.46,9.93-.27,19.86-.1,29.8Z"/>
  <path class="cls-1" d="m455.17,193.49c.07-.39-.09-.54-.47-.44-1.19,0-2.39,0-3.58.01-3.57,0-7.15.01-10.72.02-4.96-.01-9.93-.02-14.89-.04-.11-.02-.22-.04-.33-.06-.11-.02-.21-.03-.31-.01-.09.01-.18.05-.24.14-.06.08-.1.21-.12.4h0c0,4.59,0,9.18,0,13.77,0,1.16,0,2.32,0,3.48,0,.79,0,1.58,0,2.37,0,2.18,0,4.37.01,6.55,0,1.19,0,2.39,0,3.58h0c-.1.37.03.51.41.41,9.93,0,19.86.01,29.79.02.41.13.55-.04.47-.44,0-9.93,0-19.85,0-29.78Z"/>
  <path class="cls-1" d="m262.32,386.32c.09-.4-.05-.56-.46-.44-1,0-1.99.01-2.99.02-3.18,0-6.35,0-9.53,0-5.75,0-11.5,0-17.25,0-.74.07-.52.57-.45,1,0,3.78.02,7.55.02,11.33l-.03,4.77c0,.59,0,1.19,0,1.78,0,2.58.01,5.16.02,7.74,0,1.19-.01,2.39-.02,3.58-.1.39.06.53.44.47,9.93,0,19.85,0,29.78.01.41.08.57-.08.49-.49,0-9.93-.02-19.85-.03-29.78Z"/>
  <path class="cls-1" d="m194.52,339.53c9.22-.03,18.44-.04,27.66,0,1.32,0,1.68-.46,1.66-1.73-.05-3.22-.07-6.44-.09-9.66s-.04-6.44-.06-9.66c0-.79,0-1.59,0-2.38.18-1.97.19-3.91-.03-5.9-.14-1.23-.52-1.52-1.65-1.52-9.12.03-18.24.03-27.37,0-1.22,0-1.78.32-1.78,1.66.05,9.12.05,18.24.02,27.37,0,1.21.31,1.82,1.64,1.81Z"/>
  <path class="cls-1" d="m106.08,115.67c-9.02.08-18.05.07-27.07.02-1.46,0-1.84.48-1.83,1.88.05,9.12.04,18.24,0,27.37,0,1.17.15,1.79,1.58,1.78,9.22-.06,18.44-.04,27.66-.01,1.21,0,1.79-.29,1.76-1.65-.11-6.04-.15-12.08-.21-18.13.27-1.81.32-3.62.02-5.44.06-1.19.06-2.38.19-3.55.18-1.63-.35-2.27-2.12-2.26Z"/>
  <path class="cls-1" d="m185.3,310.46c0-1.45-.49-1.84-1.88-1.83-9.01.05-18.02.07-27.03,0-1.76-.02-2.12.62-2.11,2.24.07,8.81.09,17.62-.02,26.44-.02,1.93.65,2.3,2.39,2.26,1.09-.03,2.18-.04,3.27-.05,3.27-.03,6.54.02,9.8.02,4.55,0,9.11-.04,13.66.03,1.33.02,1.94-.22,1.93-1.75-.07-9.11-.06-18.22,0-27.33Z"/>
  <path class="cls-1" d="m185.3,79.41c.01-1.6-.31-2.23-2.08-2.21-8.91.09-17.82.07-26.73.01-1.59-.01-2.25.31-2.23,2.1.09,8.91.09,17.82,0,26.73-.02,1.84.72,2.1,2.27,2.07,4.45-.08,8.91-.03,13.36-.02,4.36,0,8.71-.08,13.07.04,1.79.05,2.38-.41,2.35-2.29-.1-8.81-.08-17.62-.01-26.43Z"/>
  <path class="cls-1" d="m118.33,146.72c1.06-.03,2.13-.05,3.2-.05,3.2-.03,6.39.02,9.59.02,3.42,0,6.84-.03,10.26-.01,1.14,0,2.28.02,3.42.04,1.56.03,2.04-.43,2.03-2-.07-9.02-.07-18.04,0-27.06.01-1.67-.67-1.96-2.12-1.95-8.92.04-17.85.06-26.77-.02-1.73-.02-2.18.57-2.17,2.22.07,8.82.11,17.65,0,26.47-.03,2.09.76,2.41,2.57,2.36Z"/>
  <path class="cls-1" d="m155.93,146.71c3.77-.05,7.53-.09,11.3-.12s7.53-.06,11.3-.09c.2,0,.39,0,.59,0h0c1.19,0,2.38,0,3.57,0,.85-.02,1.92.82,2.4-.62.06-9.51.1-19.03.2-28.54.01-1.36-.56-1.65-1.78-1.65-9.12.03-18.25.04-27.37,0-1.43,0-1.87.47-1.87,1.89.05,9.12.04,18.25,0,27.37,0,1.25.32,1.78,1.65,1.76Z"/>
  <path class="cls-1" d="m145.79,270.2c-9.72,0-19.44,0-29.16.01-.13-.02-.24-.02-.33,0-.18.04-.29.15-.33.33-.02.09-.02.2,0,.33,0,9.71,0,19.43,0,29.14-.03.26-.01.48.1.62.11.14.3.22.6.2.37,0,.74,0,1.11,0,1.2.29,2.41.3,3.61,0,7.9.06,15.79.11,23.69.2,1.27.02,1.75-.42,1.73-1.72-.1-6.51-.15-13.03-.21-19.54.25-.59.25-1.19,0-1.78.29-1.41.31-2.82-.01-4.23-.19-1.21,1.16-2.77-.81-3.58Z"/>
  <path class="cls-1" d="m115.84,107.38c.08.24.3.43.78.54,9.47.05,18.93.1,28.4.18,1.19,0,1.8-.28,1.78-1.65-.11-8.08-.15-16.17-.21-24.25.06-1.17.11-2.33.17-3.5.06-1.16-.42-1.65-1.59-1.31-9.52,0-19.03,0-28.55,0-.52-.08-.73.16-.66.66-.24,9.32-.24,18.63,0,27.95-.02.45-.26.98-.13,1.38Z"/>
  <path class="cls-1" d="m386.81,30.89c2.59-.02,5.17-.03,7.75-.05.4,0,.8,0,1.2,0,1.19,0,2.38,0,3.57,0,4.1,0,8.21.01,12.31.02.66.07,1.32.15,1.98.16.66,0,1.31-.06,1.96-.31.46.34.85.47.99-.29.05-9.6.08-19.2.18-28.8.01-1.41-.64-1.59-1.81-1.59-9.11.03-18.22.05-27.34,0-1.45,0-1.87.49-1.85,1.88.1,9.5.13,19,.19,28.5,0,.69.46.54.87.47Z"/>
  <path class="cls-1" d="m39.22,69.43c9.7,0,19.4.01,29.1.02.84.25,1.36.1,1.15-.94,0-1.19-.02-2.38-.02-3.57,0-3.18,0-6.35,0-9.53,0-5.16,0-10.33,0-15.49.09-.47.36-1.01-.44-1.13-9.59-.05-19.18-.1-28.77-.17-1.05,0-1.65.18-1.63,1.44.1,9.69.15,19.37.21,29.06-.04.32.07.46.4.31Z"/>
  <path class="cls-1" d="m339.23,77.52c-.37-.33-.78-.28-1.21-.13-9.32,0-18.64,0-27.96,0-.6-.13-1.24-.35-1.25.65,0,9.72,0,19.44,0,29.15-.07.51.11.79.67.72,9.46.06,18.92.11,28.38.19,1.17,0,1.83-.23,1.8-1.63-.12-5.91-.15-11.82-.21-17.73.34-3.59.23-7.18.04-10.77.22-.33.06-.44-.27-.46Z"/>
  <path class="cls-1" d="m223.18,193.05c-9.5-.04-18.99-.05-28.49-.14-1.46-.01-1.84.51-1.83,1.89.09,9.49.12,18.99.16,28.48-.11.35.02.47.36.4,3.38,0,6.75,0,10.13,0,.4,0,.8,0,1.2,0h0c.59,0,1.19,0,1.78,0,2.18,0,4.37,0,6.55,0,2.98,0,5.96.02,8.95.03.6-.03,1.36.57,1.69-.46,0-9.92,0-19.84,0-29.76.06-.41-.12-.54-.5-.45Z"/>
</svg>