<?xml version="1.0" encoding="UTF-8"?>
<svg id="Capa_1" data-name="Capa 1" xmlns="http://www.w3.org/2000/svg" viewBox="0 0 77.73 16.7">
  <defs>
    <style>
      .cls-1 {
        fill: #dd4062;
      }

      .cls-1, .cls-2, .cls-3, .cls-4, .cls-5, .cls-6, .cls-7 {
        stroke-width: 0px;
      }

      .cls-2 {
        fill: #e4a986;
      }

      .cls-3 {
        fill: #e17475;
      }

      .cls-4 {
        fill: #df5c6c;
      }

      .cls-5 {
        fill: #e28f7d;
      }

      .cls-6 {
        fill: #e6c48f;
      }

      .cls-7 {
        fill: #e8de98;
      }
    </style>
  </defs>
  <polygon class="cls-4" points="10.62 0 14.79 8.35 10.62 16.7 19.19 16.7 23.36 8.35 19.19 0 10.62 0"/>
  <polygon class="cls-5" points="44.97 8.35 40.8 0 32.63 0 36.8 8.35 32.63 16.7 40.8 16.7 44.97 8.35"/>
  <polygon class="cls-3" points="34.56 8.35 30.39 0 21.43 0 25.6 8.35 21.43 16.7 30.39 16.7 34.56 8.35"/>
  <polygon class="cls-6" points="67.23 8.35 63.06 0 53.52 0 57.69 8.35 53.52 16.7 63.06 16.7 67.23 8.35"/>
  <polygon class="cls-7" points="73.56 0 65.3 0 69.47 8.35 65.3 16.7 73.56 16.7 77.73 8.35 73.56 0"/>
  <polygon class="cls-1" points="12.55 8.35 8.38 0 0 0 0 16.7 8.38 16.7 12.55 8.35"/>
  <polygon class="cls-2" points="55.45 8.35 51.28 0 43.03 0 47.2 8.35 43.03 16.7 51.28 16.7 55.45 8.35"/>
</svg>