<?xml version="1.0" encoding="UTF-8"?>
<svg id="Capa_1" data-name="Capa 1" xmlns="http://www.w3.org/2000/svg" viewBox="0 0 77.51 16.7">
  <defs>
    <style>
      .cls-1 {
        fill: #dd4062;
      }

      .cls-1, .cls-2, .cls-3, .cls-4, .cls-5, .cls-6, .cls-7 {
        stroke-width: 0px;
      }

      .cls-2 {
        fill: #e4a986;
      }

      .cls-3 {
        fill: #e17475;
      }

      .cls-4 {
        fill: #df5c6c;
      }

      .cls-5 {
        fill: #e28f7d;
      }

      .cls-6 {
        fill: #e6c48f;
      }

      .cls-7 {
        fill: #e8de98;
      }
    </style>
  </defs>
  <polygon class="cls-6" points="67.11 16.7 62.94 8.35 67.11 0 58.54 0 54.37 8.35 58.54 16.7 67.11 16.7"/>
  <polygon class="cls-7" points="77.51 16.7 73.34 8.35 77.51 0 68.94 0 64.77 8.35 68.94 16.7 77.51 16.7"/>
  <polygon class="cls-5" points="32.76 8.35 36.93 16.7 45.1 16.7 40.93 8.35 45.1 0 36.93 0 32.76 8.35"/>
  <polygon class="cls-2" points="43.17 8.35 47.34 16.7 56.3 16.7 52.13 8.35 56.3 0 47.34 0 43.17 8.35"/>
  <polygon class="cls-4" points="10.5 8.35 14.67 16.7 24.21 16.7 20.04 8.35 24.21 0 14.67 0 10.5 8.35"/>
  <polygon class="cls-1" points="4.17 16.7 12.43 16.7 8.26 8.35 12.43 0 4.17 0 0 8.35 4.17 16.7"/>
  <polygon class="cls-3" points="22.28 8.35 26.45 16.7 34.7 16.7 30.53 8.35 34.7 0 26.45 0 22.28 8.35"/>
</svg>